<?xml version="1.0" encoding="utf-8"?>

<!DOCTYPE svg PUBLIC "-//W3C//DTD SVG 1.1//EN" "http://www.w3.org/Graphics/SVG/1.1/DTD/svg11.dtd">
<svg version="1.1" id="Layer_1" xmlns="http://www.w3.org/2000/svg" xmlns:xlink="http://www.w3.org/1999/xlink" x="0px" y="0px"
	 viewBox="0 0 2679.248 1417.795" enable-background="new 0 0 2679.248 1417.795" xml:space="preserve">
<g>
	<path fill="none" stroke="#000000" stroke-width="3" stroke-miterlimit="10" d="M1460.789,1298.575
		c1.152-1.037,2.133-2.074,3.689-2.074c0.807,0,0.692,1.267,1.152,1.844c1.442,1.729,2.998,2.767,5.304,2.767
		c1.787,0,2.825-0.173,4.61-0.462l2.767,0.692c1.903-0.748,3.055-0.979,4.842-1.845c0.289,3.458,3.458,5.534,6.917,5.534
		c4.785,0,7.724-2.767,10.145-6.917c2.306,2.305,4.612,2.767,7.84,2.767c3.862,0,8.588-0.058,9.222-3.92
		c1.673,1.325,3.171,1.614,5.362,1.614h7.32c3.171,3.171,5.995,3.92,9.915,5.996c2.651,1.383,3.574,3.574,6.455,4.381
		c6.687,1.902,8.359,9.222,15.333,9.222c4.785,0,5.476-6.917,10.261-6.917c3.17,0,4.61,1.788,7.608,2.767
		c7.205,2.364,11.817,2.709,18.445,6.456c3.805,2.133,2.133,6.629,3.92,10.606c1.211,2.651,3.689,2.767,5.764,4.841
		c2.075,2.076,2.364,5.303,5.303,5.303c2.882,0,4.727-0.345,7.148-1.844c0.866-0.518,0.807-1.845,1.844-1.845
		c1.442,0,2.249,0.692,3.689,0.692c2.19,0,3.112-2.075,5.303-2.075c2.594,0,3.171,3.458,5.764,3.458
		c5.822,0,8.705-3.458,14.526-3.458c4.612,0,6.456,3.458,10.606,5.534l1.844,0.461c12.797-3.631,19.714-8.3,32.972-8.3
		c2.825,0,6.917-0.749,6.917,2.074c0,1.326-1.614,1.673-1.614,2.998c0,1.557,2.133,1.557,2.997,2.767
		c1.442,2.018,2.595,3.919,5.131,3.919h4.727c2.767,0,3.285,3.689,6.051,3.689c3.632,0,3.517-5.995,7.148-5.995
		c3.458,0,4.958,2.651,7.378,5.072c3.458,3.458,4.957,6.11,6.917,10.606c1.788,4.209,2.018,9.684,6.572,9.684
		c3.689,0,6.11-3.515,6.11-7.204c0-1.211-0.231-1.902-0.231-3.113c0-2.074,0.692-3.285,0.692-5.361c0-2.998-1.614-4.612-1.614-7.608
		c0-5.765,7.206-7.148,12.97-7.148h4.496c2.651,0,3.574-2.075,5.821-3.458c2.767-1.73,4.324-3.055,6.456-5.534
		c3.632-4.208,7.09-5.821,8.992-11.068c1.614-4.381,1.441-7.955,5.072-10.837c1.787,1.326,2.363,2.71,4.381,3.689
		c1.326-2.363,0.519-6.225,3.228-6.225c2.133,0,2.767,2.134,4.151,3.689c0.461-1.21,0.98-2.536,2.305-2.536
		c3.805,0,5.649,2.767,9.453,2.767c2.364,0,2.882-2.536,5.073-3.458c7.09-3.055,5.937-10.665,8.069-17.985
		c0.577-2.018,2.71-2.305,3.689-4.15c1.788-3.402,1.038-6.053,2.306-9.684c1.325-3.689,4.092-5.534,4.381-9.453
		c4.554-3.402,4.438-10.607,10.145-10.607c4.555,0,6.398,3.805,10.952,4.151v-7.379l3.804,1.153
		c2.422-3.689,5.073-6.225,9.454-6.225c2.074,0,2.709,2.248,3.458,4.15c1.442,3.516,1.787,5.937,3.228,9.453
		c1.845-1.845,3.748-2.249,4.612-4.61c0.692-1.96-0.346-3.689,0.692-5.534c1.384-2.479,3.286-3.055,5.303-5.072
		c4.555-4.555,7.84-8.301,14.295-8.301c3.343,0,4.958,2.305,8.301,2.305c1.787,0,1.902-2.074,3.228-3.228
		c1.153-1.038,2.249-0.98,3.689-1.383c1.672-0.519,2.133-2.536,3.92-2.536c2.363,0,2.709,3.228,5.072,3.228
		c1.902,0,2.478-2.076,4.381-2.076c4.381,0,6.975,0.346,11.067,1.845c1.326,0.462,2.537-0.576,3.689,0.231
		c1.384,0.979,1.096,2.824,2.536,3.689c5.362,3.343,9.569,3.458,15.909,3.458c2.651,0,3.863-1.788,6.456-2.306
		c2.767-0.576,4.669,0.749,7.378-0.23c2.536-0.922,2.364-4.842,5.072-4.842c3.458,0,4.612,3.689,8.07,3.689
		c1.326,0,1.383-1.788,2.536-2.305c3.402-1.615,5.879-0.462,9.684-0.462c1.729,0,2.421,1.844,4.15,1.844
		c5.708,0,8.82-1.844,14.526-1.844c2.133,0,2.536,2.305,4.15,3.689c3.113,2.708,6.053,2.536,10.146,2.536v4.668
		c0,1.442,1.845,1.442,2.536,2.71c1.442,2.708,1.269,6.686,4.381,6.686c2.249,0,2.133-3.919,4.381-3.919
		c2.191,0,3.113,2.074,5.303,2.074c2.71,0,3.056-3.112,5.303-4.61c2.882-1.903,5.938-1.153,8.301-3.69
		c1.729-1.844,0.75-3.977,1.152-6.455c0.346-2.364,2.306-3.343,2.306-5.765c0-2.363-1.153-3.632-1.153-5.995
		c0-2.479,3.574-1.787,5.534-3.228c4.15-3.113,7.032-4.381,11.989-5.995c0.922,1.614,2.134,2.881,3.92,3.458
		c1.844,0.287,2.94,0.461,4.612,1.152c0.576-1.729-0.173-3.228,0.922-4.61c1.729-2.134,5.188-0.693,6.455-3.229l-0.922-3.458
		l-0.244-1.804c3.436-1.309,6.349-3.037,10.851-3.037c8.646,0,12.565,6.917,21.212,6.917c12.566,0,17.523-11.528,30.089-11.528
		c2.997,0,5.994,0,8.991,0c8.186,0,11.077,6.897,18.562,10.145c8.193,3.555,14.511,1.407,22.134,5.995
		c4.252,2.559,3.208,7.87,7.378,10.605c2.861,1.876,6-0.01,9.223,1.384c1.196,0.517,2.25,1.121,3.197,1.792l0.262-8.652
		c0-2.248,0.692-3.574,0.692-5.821c0-4.323-3.631-6.052-4.15-10.375c-9.339-0.922-14.757-9.568-14.757-18.907
		c0-11.529,4.842-17.753,4.842-29.282c0-3.401-3.92-4.439-3.92-7.839c0-1.672,0.174-3.919,1.844-3.919
		c1.269,0,1.96,0.692,3.229,0.692c3.285,0,4.554-3.228,7.839-3.228c1.442,0,1.902,1.614,3.343,1.614
		c1.211,0,1.442-1.729,2.652-1.729c1.442,0,2.191,0.115,3.633,0.115c5.475,0,4.091-8.013,8.587-11.068
		c3.689-2.536,7.032-1.211,11.068-3.228l0,0c4.841-3.632,8.934-5.706,10.837-11.528c3.977-5.303,8.877-5.996,12.22-11.759
		c1.614-2.824,2.823-4.439,3.689-7.608c0.633-2.422,1.152-5.303,3.688-5.303c1.73,0,2.422,1.614,4.151,1.614
		c2.421,0,3.055-2.478,5.072-3.689c1.441-0.865,2.824-1.21,3.458-2.767c0.922-2.19,0.691-4.727,2.998-5.303l4.842,0.922h1.844
		v-4.668c0-3.689,3.458-5.188,3.458-8.877v-5.649c0-2.882,2.132-3.978,3.229-6.629c2.421,1.442,3.515,3.055,4.381,5.765l4.15-1.153
		c2.191,0.231,3.689-0.231,5.534,0.922c0.691,0.404,0.748,1.614,1.614,1.614c2.651,0,2.421-4.612,5.072-4.612
		c3.92,0,5.534,3.458,9.454,3.458c3.515,0,5.244-2.305,8.761-2.305c4.957,0,4.726,8.301,9.684,8.301
		c3.574,0,2.421-6.918,5.994-6.918c3.919,0,5.764,2.998,9.684,2.998c0.749,0,0.576-1.21,1.153-1.614
		c2.132-1.498,4.092-0.98,6.686-1.614c-2.536-3.516-5.649-3.977-8.3-7.378c-2.191-2.824-2.134-7.378-5.765-7.378
		c-2.249,0-2.825,2.191-4.612,3.459c-1.383-1.556-2.997-2.306-2.997-4.382c0-2.074,2.708-1.901,4.381-2.997
		c4.611-3.17,8.011-3.861,13.603-4.612c3.285-0.461,7.378-0.865,7.378-4.15c0-3.861-3.516-6.687-7.378-6.687
		c-1.326,0-1.902,0.922-3.228,0.922c-2.536,0-2.824-3.112-5.303-3.689c0.231-2.766-1.384-4.15-1.384-6.917
		c0-2.248,1.615-3.285,1.845-5.534c1.153-0.057,1.787-0.23,2.94-0.23c1.959,0,1.902-2.536,3.285-3.92
		c1.499-1.498,4.612-0.979,4.612-3.112c0-1.153-0.404-1.902-0.922-2.882l0.231-0.922c3.228-0.807,5.188-0.922,8.531-1.153v-1.671
		c0-4.785-3.285-9.396-8.07-9.396c-5.533,0-8.185,3.458-13.718,3.458c-2.94,0-2.883-3.977-2.883-6.917
		c0-3.17,2.536-4.669,2.536-7.84c0-3.4-2.249-4.898-3.458-8.07c-2.19,1.269-3.747,2.076-6.283,2.076c-1.21,0-1.96-0.115-3.17-0.115
		c-0.576-4.553-0.289-7.204-1.384-11.643c1.672-0.518,2.94-0.173,4.612-0.693c1.845-0.576,1.384-2.881,1.614-4.841
		c0.346-2.998,0.692-4.727,1.384-7.609c0.231-0.518,1.153-1.268,1.153-1.845c0-2.477-1.269-4.091-3.229-5.533v-1.153
		c4.727,0.346,7.494-0.922,11.99-2.306c4.612-1.44,0.576-10.144,5.303-11.298c-0.404-5.303-2.71-7.955-3.92-13.142
		c-1.383-5.879-1.845-9.338-3.92-14.987c-0.806-2.19-3.977-0.634-5.533-2.305c-1.903-2.076-2.536-3.689-3.458-6.456
		c3.977-1.325,6.917-3.92,6.917-8.07c0-2.421-1.614-3.574-1.614-5.995c0-1.094,1.845-0.98,1.845-2.076
		c0-4.208-3.458-5.995-3.458-10.202c0-0.98,0.115-1.498,0.23-2.478c5.188-0.634,8.185-1.153,13.373-0.058v1.671l-1.152,4.841
		c0.461,1.845,1.094,3.92,2.997,3.92c3.977,0,5.475-3.229,8.07-6.225c2.998-3.458,6.456-4.381,11.067-4.381
		c2.537,0,3.92,1.383,6.456,1.383c3.054,0,3.92-2.882,6.225-4.841c2.998-2.536,5.245-3.343,8.531-5.534
		c2.363-1.556,2.537-3.805,4.842-5.534c2.075-1.556,4.784-0.288,6.456-2.305c3.746-4.438,5.764-8.012,5.764-13.835
		c0-4.841-3.458-7.148-3.458-11.989c0-2.132,1.094-4.381,3.228-4.381c1.326,0,1.671,1.614,2.998,1.614
		c3.633,0,4.496-3.458,6.917-6.225c0.866-1.038,2.479-0.634,2.998-1.845c1.729-3.746,0.46-6.628,2.305-10.375l-0.231-0.922
		c-1.152-0.172-1.729-0.403-2.766-0.922c-1.094-1.901-2.421-2.939-3.458-4.842c-0.865-1.614-1.095-3.919-2.998-3.919
		c-1.153,0-1.614,0.922-2.767,0.922c-1.614,0-1.845-1.729-3.228-2.536c0.749-1.556,2.305-1.96,2.305-3.632v-4.957
		c0-2.94-1.844-4.496-1.844-7.436c0-1.672,0.922-2.536,0.922-4.208c0-0.635-0.173-1.038-0.23-1.672h-3.229
		c0-4.9-4.093-8.359-8.992-8.762l-17.754,3.92c-9.799-0.749-11.874-12.912-21.673-12.912c-1.729,0-1.442,2.364-2.075,3.92
		c-3.805-0.634-6.917-0.288-9.222-3.228c-1.038-1.325-0.404-3.285-1.844-4.151c-5.823-3.688-10.606-2.421-16.832-5.533
		c2.767-5.13,8.3-6.802,8.3-12.682c0-1.556-0.461-2.478,0-3.92c3.977,0.75,1.556,8.532,5.534,8.532c2.708,0,3.574-2.825,4.612-5.303
		c1.901-4.381,4.899-6.514,9.453-7.839c1.384-0.403,2.421,0.403,3.689-0.231c1.729-0.865,1.786-3.055,3.689-3.458
		c3.458-0.693,6.686-2.652,6.686-6.225c0-2.824-3.228-3.632-3.228-6.456c0-1.672,1.96-1.787,3.458-2.536
		c-0.058-0.692-0.231-1.326-0.231-2.018c0-0.403,0.231-0.577,0.231-0.98c6.397,0,9.51-4.15,15.909-4.15
		c0.979,0,1.325,0.922,2.305,0.922c0.922,0,0.922-1.614,1.844-1.614c2.075,0,2.998,1.614,5.073,1.614
		c1.614,0,2.708-0.346,4.15-0.922c2.42,5.821,7.32,8.992,13.66,8.992c0.691,0,1.588-0.116,2.28-0.232
		c3.936-0.311,12.021-1.459,13.979,2.135c0.926,1.702,1.322,7.212,1.575,9.376c0.386,3.296,2.783,10.951,6.021,12.626
		c3.996,2.068,13.46,5.98,17.88,3.528l6.303-0.381c1.268-2.248,4.013-1.344,5.626-3.304s-0.98-5.13,1.153-6.456
		c3.285-2.017,6.628-2.248,8.07-5.764c1.901,3.862,1.728,6.571,3.228,10.606c0.518,1.442,0.749,3.228,2.305,3.228
		c2.132,0,3.229-0.922,5.361-0.922h9.338c11.528,0,17.985-2.074,29.341-3.919c10.087-1.672,15.851-2.076,25.593-5.303
		c-1.384-2.133-2.075-3.747-4.151-5.303c-0.922-1.269-1.844-2.075-1.844-3.632v-5.649c0-8.3-0.691-13.2-2.997-21.154
		c-0.807-2.939-4.381-3.574-4.381-6.686c0-4.323,7.377-3.978,7.377-8.301c0-1.21-1.499-1.269-2.305-2.076
		c-2.767-2.767-5.534-4.726-5.534-8.703v-3.748c0-2.939-2.767-4.092-5.303-5.533c-2.767-1.615-4.438-2.478-7.377-3.689
		c3.112-4.15,7.435-3.574,12.45-5.073c4.958-1.498,7.263-3.919,12.221-5.533l1.845,0.922c2.074-4.151,4.381-6.456,4.381-11.068
		c0-2.076-2.767-2.536-2.767-4.612c0-4.784,5.303-6.282,5.303-11.067c0-2.132-2.709-2.248-4.381-3.458l6.456-12.451
		c-0.865-2.076-2.767-2.306-4.612-3.689l0.231-0.922c5.648-2.305,6.743-6.744,11.528-10.837c3.689-3.112,6.514-3.977,9.915-7.378
		l0.461,0.461c-3.285-2.421-4.092-5.475-7.84-7.148c-4.265-1.901-8.011-1.614-10.605-5.534c-3.458,2.595-5.073,6.225-9.454,6.225
		c-1.153,0-1.038-1.555-1.845-2.305c-1.094-1.038-3.458-0.518-3.458-2.076c0-1.729,1.326-2.477,2.536-3.689l2.306-4.841
		l-4.612-4.381c0.749-2.363,3.228-3.055,3.228-5.534c0-2.305-2.074-3.228-2.074-5.534c0-2.766,1.268-4.611,3.458-6.224
		c1.211-0.865,2.997-1.211,2.997-2.768c0-1.728-1.498-2.305-2.536-3.688c-2.017-2.709-2.824-4.496-4.612-7.379
		c-2.074-3.401-1.959-6.11-4.15-9.453c-0.749-1.153-1.094-2.767-2.497-3.211c-1.966-0.378-3.598-0.248-5.977-0.248
		c-9.222,0-9.338-14.757-18.561-14.757c-1.283-1.71-0.657-3.615-0.864-6.225c-0.346-4.496-1.73-6.917-2.767-11.298
		c-0.98-4.208-0.807-7.032-3.229-10.606c-1.441-2.19-3.285-3.112-3.689-5.764l1.384-8.301v-5.534
		c-2.824-2.536-6.053-0.864-9.453-2.536c-3.863-1.901-3.748-5.821-5.073-9.915c-1.096-3.343-4.15-4.726-4.15-8.3
		c0-3.574,3.919-4.727,3.919-8.301c0-5.88-11.989-3.343-11.989-9.223c0-0.807,0.923-1.037,0.923-1.844
		c0-0.462-0.346-0.749-0.461-1.153h-4.785c-4.151,0-6.052-4.612-6.052-8.762c0-2.998-1.153-4.784-1.153-7.781
		c0-0.577,0.173-0.866,0.231-1.442l0.922-0.231c0.691,0.231,1.094,0.692,1.844,0.692c2.882,0,3.228-3.804,3.228-6.686
		c0-3.112-1.845-4.727-1.845-7.839c0-2.132,4.381-1.325,4.381-3.458c0-1.96-2.018-2.363-2.767-4.15
		c-1.556-3.575-0.922-5.996-0.922-9.857c0-1.557-0.288-2.421,0-3.978c1.615,0,2.537,0.173,4.151,0l0.231-1.614l-0.693-2.998
		c0.693-1.729,2.536-1.786,3.689-3.228c0.98-1.269,0.634-3.689,2.306-3.689c0.748,0,1.094,0.692,1.844,0.692
		c2.537,0,1.73-4.035,3.92-5.304c-0.922-1.441-1.614-2.421-1.614-4.15c0-1.845,2.074-2.767,3.919-2.767
		c0.98,0,1.325,0.922,2.306,0.922c0.461,0,0.749-0.346,1.153-0.461c0.345-2.882,0.172-4.496,0.057-7.379
		c1.326,0,2.536,0.461,3.402-0.462c1.325-1.44,0.288-4.611,2.305-4.611c1.269,0,2.017,0.404,3.228,0.691
		c0.981-3.977,3.92-5.591,3.92-9.684c0-6.572-5.765-9.339-5.765-15.909c0-3.113,1.845-4.727,1.845-7.839
		c0-2.594-1.614-3.862-1.614-6.456c0-1.441,0.807-2.191,1.844-3.228l-1.153-5.073l0,0c-2.191,0-4.207-0.748-5.764-2.305
		c0.46-3.054,0.922-5.245,1.153-8.301l-1.844-9.684l1.152-5.534c-0.807-2.477-2.997-3.4-2.997-5.995c0-1.498,1.153-2.19,1.153-3.689
		c0-3.458-2.479-4.957-3.92-8.07c-0.923-2.074-0.346-4.035-2.075-5.533c-2.132-1.902-5.244-0.231-6.917-2.536l-0.691,0.922
		c-0.807,4.208-5.937,3.688-10.146,3.688c-1.845,0-3.055-0.518-4.381-1.844v2.305h-4.553c-1.902,0-2.767,1.383-4.669,1.383
		c-4.843,0-7.321-2.248-11.528-4.611c-2.422-1.326-5.13-0.346-6.687-2.537c-1.441-2.017-1.901-3.804-3.919-5.302l-1.845,0.461
		c-2.247-1.96-4.092-3.458-7.148-3.458c-3.574,0-5.245,2.249-7.839,4.841c-1.5-0.864-1.672-2.421-2.536-3.919
		c-0.693-1.21-2.075-1.556-2.075-2.998c0-2.997,2.075-4.496,2.075-7.493c0-7.897-6.687-11.299-13.835-14.872
		c-1.094,2.248-3.228,3.229-5.764,3.229c-3.689,0-6.052,0.057-9.454-1.384c-2.19-0.922-1.152-4.092-3.228-5.303
		c-3.055-1.787-6.052-0.404-8.761-2.767c-3.17-2.767-3.401-5.707-6.456-8.761c-3.112,1.845-2.939,5.13-5.764,7.379
		c-1.384-1.038-2.479-1.614-4.266-1.614c-2.536,0-4.034,0.691-6.571,0.691c-3.516,0-8.629-2.681-11.569-4.641
		c-2.701,4.306-6.087,8.289-8.159,12.999c-4.663,10.595-13.732,28.268-27.422,27.664c-5.814-0.256-10.096-3.479-14.436-5.982
		c-4.702,0.684-7.18,0.625-11.677,0.625c-2.421,0-3.171,2.767-5.592,2.767c-8.992,0-14.007-1.786-22.596-4.612
		c-3.515,0-5.706-1.383-9.222-1.383c-2.939,0-3.632,3.92-6.572,3.92c-2.997,0-4.496-2.075-7.493-2.075
		c-0.922,0-1.384,0.461-2.306,0.461c-6.282,0-9.107-3.631-14.756-6.455c-4.437-2.191-7.32-2.767-11.759-4.842
		c-8.588-4.034-13.776-6.398-20.521-13.142c-2.19-2.19-6.224-1.96-6.224-5.072c0-3.805,1.095-5.822,2.305-9.453
		c-2.825-0.692-3.861-2.767-6.687-2.767c-1.21,0-1.094,2.074-2.305,2.074c-1.901,0-1.325-2.767-2.36-4.381
		c-5.886,1.651-0.867-3.475-5.654-5.198c-8.968-3.227-22.495-7.582-26.329-17.079l-9.868,0.373c-2.364,0-3.688-1.153-6.052-1.153
		c-2.709,0-2.536,3.401-4.151,5.534c-2.593,3.343-5.072,5.534-9.28,5.534h-4.726c-3.689,0-5.131-3.459-8.82-3.459
		c-1.844,0-2.305,2.306-4.15,2.306c-1.671,0-1.441-2.306-2.306-3.689c-1.614-2.652-3.574-3.343-5.533-5.764
		c-3.344-4.093-7.494-3.633-12.22-5.995c-3.689-1.846-3.977-6.918-8.128-6.918h-4.727c-2.363,0-3.688,1.153-6.052,1.153
		c-3.977,0-5.475-3.112-9.223-4.381c-5.706-1.96-10.663-2.305-13.603-7.608c-1.902-3.459-1.499-6.515-4.381-9.223
		c-2.249-2.075-4.727-1.614-7.378-3.228c-1.383-0.808-1.614-2.767-3.229-2.767c-1.555,0-1.44,2.536-2.997,2.536
		c-0.346,0-0.576-0.231-0.922-0.231c-3.861-1.269-6.513-0.461-9.915-2.536c-2.421-1.498-2.421-4.15-5.072-5.303
		c-5.591-2.421-8.416-4.669-13.373-8.07c-3.92-2.709-6.513-5.072-11.298-5.072c-3.285,0-5.015,1.383-8.301,1.383
		c-4.437,0-5.245-4.785-8.761-7.378c-0.461,0.576-1.153,0.864-1.153,1.671v4.727c0,3.574-1.901,5.303-3.689,8.359
		c-0.979,1.671-0.576,4.381-2.536,4.381c-2.536,0-3.919-0.922-6.455-0.922c-4.958,0-8.301-0.635-12.682,1.614
		c-2.594,1.325-2.305,4.496-5.072,5.534c-1.672,0.576-2.882-0.289-4.612,0c-1.384,0.231-1.787,1.845-3.229,1.845
		c-0.921,0-1.383-0.922-1.383-1.845c0-3.458,2.998-4.842,2.998-8.301c0-4.265-2.479-6.283-4.612-9.915
		c-1.499-2.536-0.287-5.648-2.767-7.147c-3.574-2.133-6.398-1.615-10.606-1.615c-2.19,0-3.112,2.075-5.303,2.075
		c-2.305,0-3.458-1.095-5.764-1.383c-2.248-0.231-4.554,0.403-5.534-1.615c-1.096-2.249-0.231-4.15-1.153-6.455
		c-1.614-0.115-2.479,0.23-4.092,0.23c-3.978,0-5.764-3.228-9.741-3.228c-1.153,0-1.384,1.383-2.536,1.383
		c-1.672,0-2.537-0.922-4.208-0.922c-0.519,0-0.807,0.173-1.326,0.231v2.709c0,2.536,1.153,3.862,1.153,6.398
		c0,3.92-4.842,4.265-6.226,7.955c-1.037,2.767-0.922,4.668-0.922,7.608c0,4.785-0.172,7.666,1.153,12.221
		c0.404,1.498,2.306,1.845,2.306,3.458c0,2.132-2.537,2.708-2.537,4.841c0,5.361,3.459,8.012,3.459,13.373
		c0,3.805-2.306,5.649-2.306,9.454c0,2.247-2.132,3.919-4.381,3.919c0.231,2.363,0.692,3.632,0.692,5.995
		c0,1.153-0.922,1.614-0.922,2.767c0,3.401,2.134,5.361,5.304,6.917c-1.384,1.556-3.575,0.807-5.073,2.306
		c-2.651,2.652-1.038,5.821-2.075,9.453c-1.728,5.879-4.61,8.877-4.61,14.987c0,4.612,8.991,2.998,8.991,7.609
		c0,5.245-5.36,8.3-10.605,8.3c-3.229,0-4.382-3.228-7.609-3.228c-0.922,0-1.383,0.461-2.305,0.461
		c-2.306,0-3.458-1.614-5.765-1.614c-1.267,0-1.96,0.462-3.228,0.462c-2.709,0-2.594-4.612-5.303-4.612
		c-2.075,0-2.767,2.305-4.842,2.305c-4.553,0-6.571-3.689-11.125-3.689c-1.787,0-2.767,0.346-4.554,0.231l-0.231,2.075
		c-0.057,2.593-0.23,4.035-0.23,6.629c0,3.574-3.229,5.072-3.229,8.646v4.496c0,0.865,1.153,1.038,1.153,1.901
		c0,2.882-2.594,3.748-5.303,5.073c-1.038,1.845-1.094,3.747-2.998,4.611c-2.19,0.981-4.265,0.462-5.764,2.306
		c-1.21,1.498-0.922,3.516-2.767,4.15c-3.228,1.095-6.225,1.153-7.839,4.151c-2.536,4.726-1.498,8.358-2.998,13.603
		c-1.153,4.034-2.305,6.283-2.305,10.491c0,2.306,0.692,3.574,0.692,5.879c0,3.286-1.845,5.016-1.845,8.301
		c0,2.536,1.153,3.92,1.153,6.456c0,4.323-4.496,5.822-4.496,10.144c0,1.096,0.173,1.673,0,2.767
		c-2.248-0.518-3.458-1.383-5.765-1.383c-1.614,0-2.421,0.691-4.035,0.691c-2.248,0-2.363-2.767-3.228-4.841
		c-1.038-2.536-1.787-3.978-2.998-6.456c-0.576-1.21-0.922-2.767-2.305-2.767c-3.344,0-4.496,3.458-7.84,3.458
		c-5.533,0-2.305-11.759-7.839-11.759c-2.593,0-2.767,3.229-5.072,4.381c-3.92,1.96-6.572,2.998-8.992,6.687
		c-2.882-2.075-4.092-5.072-7.666-5.072h-4.785c-1.67-1.499-2.824-2.767-5.072-2.767c-0.749,0-1.094,0.691-1.845,0.691
		c-2.017,0-2.191-2.478-2.767-4.381c-0.634-2.075-2.248-2.652-3.228-4.612c-0.98-1.96-1.21-4.612-3.458-4.612
		c-4.208,0-6.514,1.326-10.606,2.306c0.23,3.343,2.074,4.957,2.074,8.3c0,4.036-3.458,5.477-4.841,9.223
		c-1.269,3.458-1.153,8.07-4.842,8.07c-4.092,0-6.282-1.384-10.375-1.384c-0.403,0-0.518,0.404-0.922,0.462v4.554
		c0,2.075,0.692,3.285,0.692,5.361c0,1.787-1.901,2.767-3.689,2.767c-2.536,0-3.458-2.537-5.995-2.537
		c-5.591,0-4.265,7.725-8.301,11.759l-0.921-0.231c-0.173-1.094-0.346-1.729-0.693-2.766c-2.593-4.496-7.263-3.054-11.758-5.534
		c-4.899-2.709-6.859-7.148-12.451-7.148c-1.729,0-2.422,1.845-4.151,1.845c-1.729,0-1.67-2.363-3.228-2.998
		c-6.225-2.536-9.915-4.612-16.601-4.612c-2.018,0-3.055,1.384-5.072,1.384c-5.534,0-8.301-3.229-13.835-3.229
		c-1.96,0-1.729,3.459-3.689,3.459c-1.325,0-1.901-0.922-3.228-0.922c-2.536,0-2.363-3.805-4.842-4.381
		c-2.421-0.577-3.746-0.923-6.225-0.923c-1.325,0-1.614,1.499-2.767,2.075c-0.692-2.075-1.383-3.343-1.383-5.534
		c-4.899,1.212-6.052-5.591-6.917-10.491h-6.225c-0.692-2.536-1.384-4.322-3.458-5.879c2.421-2.421,2.767-4.612,5.303-6.687
		c2.305-1.901,4.841-0.114,7.608-1.152c2.536-0.922,2.076-3.977,2.076-6.687c0-3.861-4.554-4.034-7.839-5.995
		c-3.632-2.191-4.842-4.668-7.378-8.07c-1.383-1.901-0.749-4.265-2.767-5.534c-5.014-3.17-9.28-1.325-14.756-3.688
		c-6.513-2.825-8.761-7.09-12.912-12.682c-6.743-8.992-12.277-16.601-23.517-16.601c-1.383,0-2.363,0.576-3.458,1.383l0,0
		c-8.818,4.784-3.689,16.831-11.529,23.057c-1.269,2.536-2.767,3.861-2.767,6.687c1.557-0.174,2.651-0.866,3.92,0
		c2.19,1.498,1.442,5.533,4.15,5.533c1.152,0,1.845-0.231,2.998-0.058v1.383c0,1.557-0.577,2.364-1.153,3.748
		c-1.325-0.174-1.902-1.153-3.229-1.153c-0.748,0-1.037,0.922-1.037,1.672v13.718c0,6.11,1.959,9.396,1.959,15.506
		c0,5.13-1.268,8.185-3.688,12.682c-1.038,1.959-3.459,2.421-3.459,4.668v4.496c0,0.807,0.462,1.326,0.462,2.133
		c0,4.208-3.689,5.591-6.456,8.761c-2.19,2.536-1.96,6.686-5.303,6.686c-2.767,0-2.997-3.343-5.533-4.381
		c-2.306,3.113-2.767,5.765-2.767,9.684c0,2.422,1.614,3.574,1.614,5.996c0,2.305-2.825,2.478-3.689,4.612
		c-0.922,2.305-2.824,3.458-6.917,3.112c-5.246-2.94-7.826-3.648-11.299-6.572c-3.099-2.61-6.988-1.664-9.222-5.072
		c-1.28-1.952-0.62-4.988-2.767-5.995c-6.936-3.254-10.037-6.668-16.601-10.375c-3.082-1.741-3.862,5.303-7.378,5.303
		c-8.3,0-8.178-11.176-15.909-14.065c-3.024-1.13-5.938-1.5-8.3,0.691c-1.615,1.497-0.167,3.868-1.615,5.533
		c-0.251,0.29-0.515,0.521-0.948,0.795c-2.922,4.356-4.124,10.042-9.196,10.042c-1.844,0-2.767-1.383-4.612-1.383
		c-2.536,0-5.534,1.153-5.534,3.689c0,3.458,3.689,4.841,3.689,8.3c0,1.153-1.384,1.615-1.384,2.767
		c0,2.191,3.229,2.421,3.229,4.612c0,13.027-8.301,19.252-8.301,32.279c0,3.689,2.767,5.534,2.767,9.223
		c0,5.995-3.458,8.992-4.612,14.757c-1.268,6.34,0.109,10.948-3.228,16.601c-3.81,6.452-10.264,5.758-16.601,9.684
		c-6.69,4.144-7.418,10.122-11.528,17.061c-2.922,4.934-7.597,4.639-12.912,6.918c-7.596,3.255-11.067,8.761-19.368,8.761
		c-5.764,0-8.992-1.845-14.756-1.845c-11.182,0-15.563,10.606-26.746,10.606c-3.574,0-5.648-0.922-9.223-0.922
		c-7.839,0-10.224,7.19-17.523,10.144c-2.545,1.031-4.876,1.791-7.65,2.77c-0.914,1.629-1.379,3.466-1.906,4.844
		c-0.079,0.208-1.817,2.902-2.275,3.361c-0.651,0.651-1.018,1.731-1.796,2.161c-1.244,0.687-3.125,2.62-4.191,3.481
		c-1.976,1.597-3.683,3.044-5.268,5.041c-1.329,1.674-3.164,3.205-5.149,4.081c-6.267,2.769-17.566-0.654-23.11,2.041
		c-4.213,2.048-6.505,12.261-8.621,16.085c-1.524,2.755-4.066,0.667-5.867,3.722c-1.559,2.646-0.829,6.787-5.149,5.762
		c-6.562-1.558-8.835,7.533-10.059,11.763c-1.143,3.952-4.533,0.506-6.586-0.48c-6.376-3.063-2.313,5.683-5.627,8.163
		c-1.811,1.355-1.748,3.376-1.557,6.722c0.141,2.489,1.062,6.198,2.036,8.524c1.997,4.768,7.217,8.575,10.897,12.484
		c11.512,12.227,25.677,16.019,26.582,35.772c0.128,2.8,0.748,9.454,3.113,11.163c2.233,1.613,12.762,2.814,12.932,2.881
		c0.264,0.104,0.435-0.05,0.599,0.12c0.174,0.18,0.325,0.282,0.479,0.48c0.237,0.306,0.168,0.737,0.479,1.081
		c0.436,0.484,1.759,6.374,1.797,7.323c0.002,0.056,0.066,0.105,0.119,0.119c1.927,0.51,3.686-2.175,4.909-0.6
		c1.678,2.16,1.005,6.884,2.276,9.363c2.134,4.164,4.059,5.951,6.585,9.723c2.544,3.798,5.099,8.732,6.705,12.965
		c1.286,3.394,2.638,9.841,3.923,13.688c-0.147,6.367-4.469,8.557-7.525,13.514c-2.651,4.265-2.478,7.781-5.995,11.299
		c-1.845,2.766-4.15,3.458-6.455,5.764c-1.556,1.556-0.462,3.515-0.692,5.764c-0.172,1.73-1.383,2.363-2.074,3.92
		c1.096-0.173,1.672-0.173,2.767,0c-0.115,2.248,0.289,4.092-1.153,5.765c-0.634,0.748-1.845,0.806-1.845,1.844
		c0,1.441,0.115,2.248,0,3.689c-4.323,0.577-7.839,3.516-7.839,7.839c0,5.592,3.862,10.837,9.453,10.837
		c3.171,0,4.9-1.614,8.07-1.614c2.249,0,3.056,2.305,5.303,2.305c3.805,0,5.072-2.997,8.531-4.611
		c0.981-0.462,1.903,0.345,2.767-0.231c1.557-1.095,2.191-2.998,4.151-2.998c2.018,0,2.825,1.729,4.15,3.229
		c1.788,2.017,3.516,2.421,5.534,4.15c5.361,4.668,10.375,7.897,10.375,14.987c0,1.441-0.692,2.248-0.692,3.689
		c0,6.859,5.995,9.74,5.995,16.601c0,5.937-4.265,8.301-6.917,13.604c-0.577,1.153-2.075,1.441-2.075,2.767
		c0,1.786,0.231,2.767,0.231,4.553c0,3.402-4.668,2.94-6.917,5.361c-1.095,1.21-0.922,2.652-0.922,4.382
		c0,2.939,2.767,4.207,2.767,7.147c0,6.341-4.265,8.935-6.687,14.757c2.364,0.576,4.439,1.498,4.842,3.919l-1.384,8.762v6.859
		c0,3.228-4.611,2.363-6.917,4.668c-4.092,4.093-4.381,7.84-8.531,11.99c-0.749-4.784-1.441-10.606-6.225-10.606
		c-1.441,0-1.556,2.305-2.998,2.305c-5.072,0-6.859-3.977-11.297-6.456c-5.245-2.939-9.108-3.688-13.142-8.069
		c-1.845-2.018-1.96-3.977-3.689-6.225c-1.844-2.422-4.208-2.537-6.917-3.92c-2.825-1.441-4.323-3.401-5.073-6.456
		c-0.461-1.844-0.403-4.381-2.305-4.381c-2.478,0-3.746,1.614-6.225,1.614c-4.496,0-7.148-2.536-9.684-6.224
		c-2.882-4.209-5.072-6.918-5.072-11.99c0-2.479,2.421-3.112,2.997-5.534c0.75-3.171,1.153-5.476,3.689-7.378
		c1.269-0.922,2.191-1.672,3.689-2.076c1.095-0.289,2.767,0,2.767-1.153c0-5.016-4.208-7.666-8.992-9.222
		c-2.132-0.691-4.035,0.922-5.765-0.462c-1.844-1.442-1.901-3.343-2.766-5.534c-0.693-1.787-2.536-2.421-2.536-4.381
		c0-2.018,2.881-1.787,3.919-3.458c1.442-2.305,2.364-3.747,2.536-6.455c-3.055,0.748-4.322,2.767-7.378,2.767
		c-5.073,0-6.225-6.456-11.299-6.456c-1.094,0-1.671,0.692-2.767,0.692c-1.324,0-1.959-1.153-3.284-1.153h-4.727
		c-1.153,0-1.729,0.462-2.882,0.462h-5.418c-3.112,0-4.323,2.998-7.436,2.998c-2.132,0-3.17-1.153-5.303-1.153
		c-2.536,0-3.689,1.786-6.225,2.075c-1.441,0.115-2.536-0.807-3.688,0c-2.422,1.729-2.018,4.323-3.459,6.918
		c-2.421,4.322-4.957,6.571-5.303,11.528l-0.922,0.23c-3.515-1.152-5.533-2.075-9.222-2.075c-6.456,0-8.532,6.917-14.987,6.917
		c-1.96,0-2.191-2.306-2.767-4.15c-5.821-5.822-9.626-8.763-12.682-16.14c-0.979-2.364-3.228-2.94-4.15-5.303
		c-1.672-4.093-1.325-9.569-5.765-9.915l-18.906,5.764c-2.767-0.692-3.574-3.458-6.456-3.458c-1.325,0-1.901,0.922-3.228,0.922
		c-1.902,0-2.018-2.997-3.92-2.997c-3.458,0-5.245,1.845-8.531,2.767c-2.825,0.807-5.245-0.462-7.609,1.383
		c-2.132,1.672-2.132,5.072-4.841,5.072c-1.787,0-2.422-1.614-3.458-2.997c-2.191-2.826-4.381-4.555-4.381-8.185
		c0-6.687,6.686-9.108,6.686-15.794c0-2.075-0.922-4.381-2.997-4.381c-7.84,0-6.687,11.298-13.835,14.525
		c-4.092,1.845-7.089,0.749-11.768,3.674c-0.387,1.53-0.303,1.694-0.221,1.859c3.892,7.852,0.217,13.955,3.228,22.135
		c3.098,8.42,8.761,11.298,8.761,20.29c0,4.784-6.628,3.574-10.606,6.225c-0.231-2.997-0.461-6.917-3.458-6.917
		c-5.188,0-7.032,5.303-12.22,5.303c-3.054,0-3.92-3.689-6.974-3.689h-4.496c-1.326,0-1.96,0.692-3.286,0.692
		c-4.092,0-5.591-3.919-9.684-3.919c-1.555,0-1.671,2.305-3.228,2.305c-1.325,0-1.901-1.153-3.228-1.153
		c-2.594,0-3.632,2.306-6.225,2.306c-2.94,0-2.363-5.303-5.303-5.303c-4.035,0-8.588,0.807-9.223,4.841
		c-1.901-0.922-2.939-2.075-5.072-2.075c-4.265,0-6.628,1.844-10.894,1.844h-5.418c-1.672,0-1.96,2.306-3.633,2.306
		c-1.325,0-2.017-0.692-3.343-0.692c-5.649,0-8.3,3.919-13.949,3.919v8.761c-2.478,0-3.632,1.615-6.11,1.615
		c-2.422,0-3.632-1.499-5.996-1.845c-7.665-1.269-12.046-1.729-19.828-2.998c-1.21,0.172-1.845,0.692-3.054,0.692h-4.727
		c-1.845,0-2.825-0.461-4.669-0.461c-6.283,0-9.626,2.997-15.909,2.997c-4.208,0-6.168-3.228-10.375-3.228
		c-3.862,0-4.669,5.072-8.532,5.072c-0.922,0-1.383-0.461-2.305-0.461c-3.113,0-2.939,4.092-4.15,6.917
		c-0.865,2.075-2.998,2.767-2.998,5.072c0,4.092-1.556,6.283-1.845,10.376c-0.231,3.458,1.095,6.11-1.153,8.761
		c-1.729,2.074-4.092,1.614-6.686,2.536c-2.594,0.922-3.689,2.998-6.456,2.998c-2.421,0-3.574-1.615-5.995-1.615
		c-1.787,0-2.478,1.557-4.15,2.076c-3.574,1.153-5.88,0.462-9.684,0.462c-5.476,0-8.935-1.153-13.373-4.382
		c-3.574,7.148-7.781,9.858-13.373,15.449c-1.787,1.787-5.072,1.787-5.072,4.381c0,2.018,1.498,3.92,3.516,3.92h5.649
		c3.688,0,2.132,5.476,3.746,8.761c-0.692,0.058-1.094,0.23-1.787,0.23c-0.921,0-1.442-0.576-2.363-0.692l-5.073,0.692l-4.15-1.152
		c-1.556,0.345-1.441,2.536-2.998,2.536c-2.652,0-3.804-2.076-6.455-2.076c-3.458,0-6.341,2.536-6.687,5.995
		c-1.441,0.174-2.305-0.115-3.689,0.231c-1.729,0.462-1.498,2.94-3.228,3.229c-2.305,0.404-3.631-0.289-5.995,0v4.092
		c0,1.672,0.692,2.652,0.692,4.323c0,3.113-3.228,4.036-6.225,4.957c-3.285,0.981-5.072,2.537-8.531,2.537
		c-1.96,0-2.652-1.845-4.612-1.845c-1.498,0-2.191,1.152-3.689,1.152c-0.576,0-0.922-0.461-1.383-0.692
		c2.536-6.167,9.453-7.608,9.453-14.295c0-2.536-3.92-0.461-6.456-0.461c-2.881,0-4.034-2.536-6.917-2.536
		c-2.536,0-3.228,2.421-5.534,3.458c-3.228,1.441-5.534,1.498-8.761,2.997c-3.977,1.845-6.282,3.055-10.145,5.303
		c-1.614,0.922-4.15,0.635-4.15,2.537c0,1.037,0.231,1.671,0.231,2.709c0,2.652-3.632,2.824-6.282,2.824h-13.95
		c-1.902,0-2.997,0.174-4.9,0.462l-4.612-0.922c-1.21,0.692-1.324,1.787-2.305,2.767c-1.556-1.153-2.652-1.845-4.612-1.845
		c-1.44,0-2.248,0.922-3.688,0.922c-5.418,0-11.528-2.422-11.528-7.839c-0.058-0.577,0.23-1.095,0.23-1.672
		c0-2.94,3.92-3.458,3.92-6.398c0-8.935-8.473-11.24-14.295-17.985c-1.441-1.672-4.381-1.672-4.381-3.92
		c0-2.132,1.557-2.997,2.075-5.072l-0.922-0.461h-5.015c-1.788,0-2.767-0.462-4.555-0.462c-2.881,0-4.381,1.153-7.262,1.153
		c-3.344,0-3.92-4.265-3.92-7.609c0-7.089,10.606-4.841,14.756-10.606c-1.729-1.555-4.322-0.288-5.533-2.305
		c-1.384-2.363-0.462-4.841-2.537-6.686c-1.728-1.499-3.631-0.922-5.995-0.922c-4.957,0-6.858,4.611-11.816,4.611h-7.552
		c-1.383,1.211-1.038,3.056-2.536,4.151c-2.017,1.442-4.092-0.231-6.456,0.692c-1.325,0.519-1.556,2.074-2.997,2.074
		c-4.496,0-4.668-5.36-6.917-9.222c-2.422-4.15-7.379-1.498-12.221-2.076c-2.536-0.289-3.17-2.536-5.303-3.919
		c-1.959-1.269-3.861-0.635-5.533-2.306c-1.095-1.095-0.462-2.536-1.384-3.688c-2.132-2.595-5.188-1.615-8.588-1.615h-5.879
		c-3.171,0-4.496-2.766-7.667-2.766c-0.922,0-1.441,0.403-2.305,0.692l-5.073-0.922c-1.901,2.132-3.343,3.919-6.224,3.919
		c-0.518,4.496,0.114,9.857-4.381,10.606l-6.687-1.152c-3.17,0.23-4.784,1.383-7.955,1.383c-9.108,0-12.451-8.012-21.558-9.223
		c0.635-5.245,2.479-7.897,3.92-12.911c0.289-1.153,1.614-1.557,1.614-2.767c0-0.404-0.403-0.519-0.461-0.922
		c-3.344,0.231-4.958,2.076-8.301,2.076c-0.922,0-1.384-0.462-2.305-0.462c-1.326,0-2.075,0.346-3.229,0.922l0.462,1.845v4.554
		c0,3.343,5.072,3.632,5.072,6.975c0,6.744-1.729,10.491-4.15,16.831c0,3.055-1.153,5.016-1.153,8.07
		c0,3.862,1.845,5.822,1.845,9.684c2.709,0.404,4.957-0.691,6.917,1.153c3.229,2.998,1.672,6.917,2.767,11.298
		c1.268,5.188,2.536,8.07,2.536,13.373c0,1.845-2.536,1.557-3.92,2.767c-2.651,2.305-4.092,4.841-7.608,4.841
		c-0.634,4.093-2.997,6.053-2.997,10.145c0,2.709,0.461,4.209,0.691,6.917v-0.692l-1.845-0.231
		c-4.899,1.614-8.761,2.133-11.528,6.456c-1.729,2.709-1.441,4.957-3.229,7.608c-2.017,2.94-2.421,5.534-5.303,7.609
		c-3.804,2.767-7.378,4.957-7.378,9.684c0,1.095,0.691,1.672,0.691,2.767c0,1.729-2.132,1.729-3.458,2.767
		c-1.21,0.98-1.729,2.074-2.998,2.997l-4.15-0.692c-6.052,0.75-7.32,8.531-13.373,8.07c-2.882-0.231-3.631,2.882-6.225,4.15
		c-1.268,0.635-2.305-0.057-3.689,0.231c-2.536,0.519-3.054,2.825-4.381,5.072c-3.343-2.478-6.398-2.305-10.606-2.305
		c-2.939,0-4.323,1.614-7.148,2.305c-0.864-2.075-1.614-3.284-1.614-5.533c0-2.825-0.518-6.918,2.306-6.918
		c1.095,0,1.672,0.462,2.766,0.462c2.249,0,3.113-2.075,4.381-3.92c0.981-1.441,2.998-1.67,2.998-3.458
		c0-1.556-0.288-2.594-1.383-3.689c-0.749-1.901-3.459-2.305-3.459-4.381c0-1.268,1.384-1.498,2.075-2.536
		c3.055-4.496,2.882-8.07,5.303-12.911c1.498-3.055,4.151-4.381,4.151-7.839c0-2.882-0.577-6.456-3.459-6.456
		c-2.363,0-3.631,1.383-5.995,1.383c-2.708,0-3.746-2.767-6.456-2.767c-6.571,0-6.571,10.606-13.142,10.606
		c-3.343,0-4.726-2.997-8.07-2.997c-5.072,0-3.631,7.436-7.839,10.375c-4.15-6.225-5.072-10.952-5.072-18.388v-4.15
		c0-2.364-1.556-4.669-3.92-4.669l-0.23-1.384c1.268-2.132,3.458-1.614,5.764-2.536c2.998-1.153,3.458-4.381,3.458-7.608
		c0-2.882-1.786-4.208-2.767-6.917c-0.864-2.363-0.23-4.151-1.152-6.456c-1.441,0.231-2.248,0.922-3.689,0.922
		c-1.614,0-2.075-1.498-3.458-2.306c-5.073-3.054-7.379-7.204-7.839-13.142h-1.556c-3.171,0-4.785,2.076-7.955,2.076h-4.727
		c-4.381,0-3.862-5.821-5.361-9.915c-1.787-4.899-7.609-5.937-7.609-11.182c0-2.939,1.845-4.496,1.845-7.436
		c0-0.403-0.231-0.577-0.231-0.98c-3.054,0.462-3.17,4.842-6.224,4.842c-1.095,0-1.672-0.462-2.768-0.462
		c-3.343,0-4.957,2.306-8.3,2.306c-2.709,0-1.729-3.92-3.458-5.995c-1.153-1.442-2.939-0.75-4.842-0.923
		c-1.383-0.114-1.845-1.614-3.228-1.614c-0.749,0-1.384,0.634-1.384,1.384v2.708c0,1.96-0.23,3.055-0.921,4.9
		c-4.092-0.979-5.707-3.401-8.992-5.995c-3.458-2.767-6.628-2.306-11.068-2.998c0.691-2.825,3.229-3.919,3.229-6.859v-8.416
		c0-1.153,0.461-1.786,0.461-2.939c0-2.133-3.401-0.807-5.072-2.076c-3.401-2.594-6.283-3.458-10.606-3.458
		c-4.554,0-6.052,4.612-7.839,8.761c-2.478,5.706-3.862,9.05-6.225,14.756c-1.038,2.594-0.205,5.439-2.454,7.053
		c0.155-0.093,0.192-0.172,0.372-0.159c-0.177,0-2.388,2.526-3.057,2.971c-8.161,5.419-16.69-0.094-25.569-0.094l-7.874,0.836l0,0
		c-0.62,2.508-4.488,5.434-6.485,6.963c-2.954,2.26-6.08,3.262-9.449,4.549c-2.163,0.827-4.493,1.006-6.581,1.919
		c1.211,4.842,5.875,5.303,8.296,9.625c1.845,3.286,1.729,8.07,5.534,8.07c1.557,0,2.191-1.555,2.767-2.997
		c5.534,4.15,9.396,7.148,16.37,7.148c0.059,0.576,0.231,0.865,0.231,1.442c0,3.284-1.383,5.072-1.383,8.358
		c0,10.491,5.072,15.909,5.072,26.4c0,6.974-11.759,3.055-15.449,8.992c-4.091,6.629-5.244,11.067-9.914,17.292
		c-3.632,4.842-5.765,7.609-9.454,12.451c-1.671,2.191-1.094,4.439-2.767,6.687c-3.171,4.265-5.417,6.744-6.686,11.989l0,0
		c2.074,1.095,2.421,3.458,4.612,4.381c2.652,1.153,6.225,1.269,6.225,4.151c0,4.323-2.767,6.224-4.151,10.375
		c5.88,3.401,10.606,7.032,10.606,13.834c0,2.133-2.19,2.652-2.997,4.612c-1.499,3.516-1.556,5.822-2.767,9.453
		c0.404,0,0.691,0.231,1.095,0.231c0.922,0,1.441-0.692,2.363-0.692c3.747,0,4.15,4.265,7.148,6.455
		c2.536,1.845,5.303,1.384,7.148,3.92c2.249,3.112,0.865,7.552,4.381,8.992l0.231,0.922c-2.882,2.882-3.458,5.707-3.458,9.684
		c0,1.326,1.844,1.211,2.766,2.076c1.384,1.268,1.615,2.766,1.615,4.726c0,1.845,0.576,3.229-0.462,4.727
		c-1.901,2.767-6.341,0.98-7.608,4.15c-1.211,3.055-1.094,5.131-1.845,8.301l0,0c2.998,2.709,4.554,5.995,8.646,5.995
		c1.614,0,2.133-2.074,1.96-3.689l0.922-0.461c0.635,0.173,1.152,0.461,1.845,0.461c4.092,0,6.052-2.997,10.144-2.997
		c2.479,0,2.826,2.94,5.072,3.919c1.673,0.75,3.056,0.059,4.612,0.922c2.479,1.442,2.71,4.209,5.534,4.842
		c3.171,0.692,5.649-0.807,8.301,0.922c0.865,0.576,0.807,1.844,1.845,1.844c1.902,0,2.997-0.462,4.9-0.462h4.957
		c2.536,0,2.824,2.998,4.899,4.381c5.188,3.458,7.379,8.301,13.604,8.301c4.092,0,5.533-4.15,9.626-4.15
		c2.018,0,3.113,0.23,5.13,0.115c-1.038,2.249-2.998,3.171-2.998,5.649c0,2.536,3.229,2.479,5.534,3.458
		c1.902,0.807,1.845,2.998,1.845,5.072c0,2.537-2.939,2.826-4.381,4.842c-2.305,3.171-2.998,5.764-2.998,9.684
		c0,1.326,1.845,1.614,1.845,2.94v8.646c0,2.191,2.826,2.191,4.842,2.939c2.767,1.038,3.689,3.057,6.225,4.381
		c4.554,2.422,6.801,5.996,11.989,5.996c1.96,0,2.882-1.614,4.842-1.614c1.556,0,2.133,1.614,3.689,1.614
		c1.211,0,1.671-1.094,2.766-1.614c1.384,2.074,0.692,4.669,2.998,5.533c3.458,1.269,5.938,0.462,9.223,2.076
		c2.249,1.095,2.133,3.632,4.15,5.072c2.767,1.96,5.995,1.903,7.148,5.073c0.922,2.478-0.346,5.418,2.075,6.455
		c2.709,1.153,4.669,0.29,7.378,1.384c5.592,2.305,5.649,10.375,11.759,10.375c3.574,0,5.188-2.767,8.762-2.767
		c2.364,0,3.633,0.922,5.995,0.922c6.341,0,7.725-8.07,14.065-8.07c5.189,0,11.068-2.19,11.068-7.378
		c0-2.709-2.536-3.747-2.536-6.456c0-1.614,2.305-1.729,2.767-3.229c1.959-6.282,2.305-10.145,3.919-16.601l0.922-0.231
		c2.249,2.826,5.362,2.019,8.992,2.306c2.133,0.173,2.94,2.075,5.072,2.075c1.729,0,2.536-1.038,4.151-1.615
		c1.326-0.461,3.458,0.059,3.458-1.383c0-1.901-1.614-2.708-1.614-4.612c0-2.19,0.921-3.343,0.921-5.534
		c7.263,0,8.301-8.3,11.068-14.987c1.153-2.766,1.153-6.455,4.15-6.455c2.191,0,3.344,1.383,5.534,1.383
		c1.442,0,1.557-1.267,2.767-2.075c1.788-0.692,1.96-3.228,3.92-3.228c2.709,0,3.17,2.94,5.072,4.841
		c2.249,2.249,4.496,3.229,5.303,6.456l-0.922,7.378c0.519,3.401,4.381,3.458,7.608,4.381c4.151,1.211,6.284,2.71,10.145,4.612
		c2.249,1.095,4.438,2.364,4.438,4.9v6.686c0,1.729-1.729,2.191-2.133,3.862c-0.518,2.075,0.174,3.632-0.691,5.534
		c-1.038,2.364-2.997,3.402-2.997,5.995c0,7.032,0.345,10.952,0.921,17.985l0,0l3.229-1.614c2.074,4.15,6.052,5.072,10.664,5.072
		h4.958c3.515,0,5.36-1.441,8.587-2.767c-0.23,1.614-0.691,2.479-1.383,3.92v1.614c0.865,0.058,1.383,0.231,2.249,0.231
		c1.786,0,2.593-1.21,4.208-1.844c2.825-1.153,5.016-1.038,7.378-2.998c1.614-1.325,1.038-3.804,2.998-4.612
		c5.476-2.363,9.396-1.268,14.987-3.228c3.574-1.211,4.727-4.612,8.531-4.612c1.96,0,2.133,2.363,3.689,3.458
		c2.479,1.729,4.496,2.076,6.456,4.381c2.018,2.422,1.787,5.303,4.612,6.687c5.303,2.651,8.012,4.785,12.22,8.992
		c1.153,1.153,2.998,1.383,2.998,2.997c0,1.384-1.615,1.615-2.306,2.767c-2.998,4.842-7.839,6.745-7.839,12.451
		c0,1.384,1.153,2.536,2.536,2.536c6.284,0,9.165-4.612,15.449-4.612c6.225,0,6.455,9.685,12.681,9.685
		c1.96,0,2.191-2.998,4.151-2.998c2.074,0,2.652,1.845,4.381,2.998c4.612,3.055,7.608,5.302,13.142,5.302
		c5.649,0,7.724-5.533,13.373-5.533c2.652,0,4.034,1.153,6.686,1.153c2.479,0,3.747-0.922,6.225-0.922
		c4.9,0,7.321,2.997,12.221,2.997c2.536,0,3.919-0.461,6.455-0.461c0.635,0.634,1.153,1.096,1.845,1.614
		c4.15-5.534,4.093-10.146,6.225-16.832c0.635-2.075,2.882-1.96,4.612-3.228c1.672-1.211,1.787-3.055,3.458-4.381
		c1.845-1.441,5.072-1.095,5.072-3.459c0-3.689-2.767-5.417-2.767-9.107c0-11.587,8.762-16.89,8.762-28.475
		c0-3.113-0.693-4.842-0.693-7.954c1.153-0.059,1.845,0,2.998,0c3.458,0,2.074-5.188,2.074-8.647
		c0.405-0.115,0.693-0.461,1.153-0.461c2.767,0,4.15,1.845,6.917,1.845c4.382,0,7.783-1.788,9.684-5.764
		c1.557-3.344-0.807-6.111,0.693-9.454c0.922-2.076,3.228-1.902,5.303-2.767c1.442-0.635,2.075-1.844,3.689-1.844
		c2.651,0,3.688,2.536,6.34,2.536c7.667,0,10.434-7.839,18.1-7.839c0.75,0,1.095,0.692,1.845,0.692c2.709,0,3.747-2.767,6.456-2.767
		c1.614,0,2.536,0.692,4.15,0.692c2.536,0,2.652-3.92,5.188-3.92c2.594,0,4.496,1.095,5.879,3.229
		c2.306-0.922,3.286-2.767,5.765-2.767c5.534,0,5.938,6.398,9.915,10.145c2.94,2.767,6.283,1.615,10.375,1.615
		c4.265,0,6.745-2.595,8.992-6.225c1.038-1.673,0.576-3.574,2.075-4.842c1.672-1.442,4.151,0.115,5.534-1.614
		c2.998-3.747,4.9-7.609,9.684-7.609c5.938,0,9.453,3.285,12.912,8.07c1.211,1.672,1.383,4.151,3.458,4.151
		c1.959,0,2.478-1.729,4.15-2.767c2.364-1.442,4.669-0.866,6.687-2.767c1.383-1.269,1.268-2.998,2.766-4.15l1.845,0.461
		c3.229-0.922,4.669-3.458,8.07-3.458c4.727,0,7.898,2.767,10.837,6.456c0.691,1.729,1.787,3.228,3.689,3.228
		c5.015,0,7.667-1.845,12.682-1.845c2.766,0,3.747,2.651,5.072,5.072c2.421,4.381,5.822,6.918,10.837,6.918
		c7.147,0,8.07-10.146,15.217-10.146c0.922,0,1.442,0.461,2.364,0.461h5.879c4.266,0,5.649-3.804,9.742-5.072
		c7.552-2.363,11.932-4.323,18.215-8.992c4.612-3.458,7.091-7.608,12.912-7.608c0.98,0,1.383,0.461,2.305,0.922
		c1.038-1.326,0.981-3.056,2.536-3.689c2.364-0.98,4.324-0.173,6.456-1.614c1.498-0.981,1.845-2.998,3.689-2.998
		c1.902,0,2.825,1.153,4.727,1.153c3.978,0,6.686,0.692,10.26-0.922c2.305-1.038,1.788-5.072,4.381-5.072
		c3.402,0,5.246,1.152,8.646,1.152c3.055,0,4.266-2.94,5.419-5.764c1.326-3.343,4.67-4.381,8.301-4.381
		c1.729,0,2.421,1.614,4.15,1.614c2.825,0,4.093-1.729,6.687-2.767c3.458-1.442,6.11-0.058,9.684-1.383
		c2.536-0.922,3.285-3.458,5.995-3.458c3.919,0,5.995,1.555,9.684,2.767c4.036,1.325,8.07,3.112,8.07,7.378
		c0,2.536-3.516,3.285-5.765,4.381c-0.692,2.133-2.305,3.055-2.305,5.303c0,8.416-8.415,13.604-16.831,13.604
		c-1.96,0-2.882-1.153-4.842-1.153c-2.247,0-2.708,2.306-4.611,3.458c-1.787,1.095-4.151,1.556-4.151,3.689
		c0,2.075,1.845,2.998,1.845,5.072c0,1.845-1.152,2.767-1.383,4.612l2.076,6.917c-0.058,1.269,0,2.018,0,3.285
		c0,7.436,12.22,7.263,12.22,14.699c0,5.475-6.918,6.744-6.918,12.22c0,2.422,2.941,2.709,5.304,3.229
		c3.285,0.748,5.418,0.979,8.3,2.767c5.476,3.4,5.649,8.415,9.223,13.834c2.249-0.98,3.919-1.788,5.072-3.92
		c0.576-1.096,0.807-2.536,2.076-2.536c2.881,0,4.381,1.269,7.148,2.075c1.845,0.518,4.15-0.173,4.841,1.614
		c0.519,1.325-0.346,2.536,0.462,3.689c2.018,2.882,5.764,3.401,5.764,6.917c0,1.556-0.692,2.364-0.692,3.92
		c0,3.285,4.842,3.632,4.842,6.917c0,2.479-1.499,3.632-2.768,5.764c-1.786,1.153-3.458,2.249-3.458,4.381
		c0,1.903,1.615,2.71,1.615,4.612c0,3.689-2.076,5.362-3.458,8.761c0.98,0.635,1.556,1.615,2.766,1.615
		c0.404,0,0.519-0.462,0.922-0.462c7.667,0,11.472,4.842,19.138,4.842c0.98,0,1.556-0.231,2.536-0.462l0.922,0.231
		c1.442,8.877,3.632,13.431,6.225,21.904c1.153,3.689,0.404,6.687,2.997,9.453c3.978,4.209,7.667,5.419,13.373,6.687
		c1.729,0.346,1.557,2.478,2.998,3.458c4.209,2.998,8.359,0.462,13.142,2.536c1.499,0.635,1.038,2.71,2.305,3.689
		c2.249,1.729,4.496-0.115,7.379,0.231c6.572,0.807,9.108,5.014,14.295,8.992c1.498,1.152,3.055,0.98,4.612,2.074
		c1.383,0.981,1.498,2.998,3.228,2.998c2.133,0,2.94-2.076,5.072-2.076c2.076,0,3.229,0.462,5.304,0.462
		c4.092,0,5.821-3.458,9.914-3.458c3.229,0,3.459,4.841,6.687,4.841c2.881,0,4.035-2.767,6.917-2.767
		c5.649,0,10.203-0.864,14.064,3.229c1.614,1.728,2.998,2.305,4.612,4.15c1.383,1.614,1.787,3.919,3.92,3.919
		c1.672,0,0.98-2.708,2.305-3.688c2.249-1.672,4.208-1.615,7.032-1.615c3.458,0,5.649,0.174,8.877,1.384
		c4.957,1.845,6.514,6.917,11.817,6.917c1.038,0,1.672-0.288,2.709-0.231c0.634,3.171-0.462,5.534,1.383,8.07
		c1.614,2.249,3.862,2.767,6.686,2.767c1.499,0,2.191-0.979,3.689-1.153l4.151,0.922h5.245c3.516,0,5.534-0.922,9.05-0.922
		c4.15,0,6.224,2.536,10.375,2.536c1.672,0,2.594-0.461,4.265-0.461c3.862,0,5.823,2.536,9.684,2.536
		c1.498,0,2.305-0.692,3.805-0.692c3.804,0,5.764,1.844,9.453,2.767c0.519,0.058,0.807,0.231,1.326,0.231
		c5.534,0,8.127-3.92,13.661-3.92s7.782,3.747,13.142,5.303c5.765,1.673,9.339,0.692,14.987,2.305
		c2.651,0.75,2.767,3.632,5.073,5.073c4.726,2.94,8.877,1.383,13.834,3.919c3.343,1.729,2.651,7.379,6.456,7.379
		c2.421,0,2.651-3.689,5.072-3.689c1.267,0,1.96,0.692,3.228,0.692c1.844,0,2.767-1.152,4.612-1.152
		c4.381,0,6.686,1.498,10.837,2.767c2.018,0.576,2.709,2.766,4.841,2.766c1.788,0,0.981-2.766,1.615-4.381
		c1.326-3.285,4.554-4.381,8.128-4.381c2.132,0,3.343,0.173,5.475,0.231c0.462-2.132-0.748-5.303,1.384-5.303
		c2.997,0,4.611,1.269,7.378,2.305c1.326,0.462,2.651,0.059,3.689,0.922c1.614,1.384-0.403,4.093,1.153,5.534
		c1.614,1.498,3.516,0.635,5.764,0.692c2.595,0.059,3.978,0.922,6.572,0.922c1.557,0,2.305-0.692,3.862-0.692h4.727
		c3.804,0,5.821-1.614,9.511-2.536c2.19,4.381,3.343,9.453,8.184,9.453c2.825,0,3.343-2.997,5.419-4.841
		c2.421,2.421,5.765,0.345,8.301,2.536c1.902,1.672,0.461,5.764,2.997,5.764c2.422,0,2.651-3.689,5.073-3.689
		c2.594,0,3.689,1.788,6.225,2.306c2.074,0.404,3.458-0.403,5.533,0c5.418,1.096,7.552,4.265,12.682,6.456
		c6.168,2.651,10.146,2.594,16.831,3.688l0,0L1460.789,1298.575z"/>
	<g>
		<path fill="none" d="M2619.106,562.427c-0.316-0.259-0.606-0.524-0.881-0.793v1.622
			C2618.515,562.996,2618.808,562.723,2619.106,562.427z"/>
		<path fill="none" d="M2619.162,562.372c-0.019,0.019-0.038,0.036-0.057,0.055c0.167,0.137,0.337,0.273,0.518,0.406
			L2619.162,562.372z"/>
		<path fill="#ED2939" d="M59.624,931.28c2.074,1.095,2.421,3.458,4.612,4.381c2.652,1.153,6.225,1.269,6.225,4.151
			c0,4.323-2.767,6.224-4.151,10.375c5.88,3.401,10.606,7.032,10.606,13.834c0,2.133-2.19,2.651-2.997,4.612
			c-1.499,3.516-1.556,5.822-2.767,9.453c0.404,0,0.691,0.231,1.095,0.231c0.922,0,1.441-0.692,2.363-0.692
			c3.747,0,4.15,4.265,7.148,6.455c2.536,1.844,5.303,1.384,7.148,3.92c2.249,3.112,0.865,7.552,4.381,8.992l0.231,0.922
			c-2.882,2.882-3.458,5.707-3.458,9.684c0,1.326,1.844,1.211,2.766,2.075c1.384,1.268,1.615,2.766,1.615,4.726
			c0,1.845,0.576,3.229-0.462,4.727c-1.901,2.767-6.341,0.98-7.608,4.15c-1.211,3.055-1.094,5.131-1.845,8.301
			c2.998,2.709,4.554,5.995,8.646,5.995c1.614,0,2.133-2.074,1.96-3.689l0.922-0.46c0.635,0.173,1.152,0.46,1.845,0.46
			c4.092,0,6.052-2.997,10.144-2.997c2.479,0,2.826,2.94,5.072,3.919c1.672,0.75,3.056,0.059,4.612,0.922
			c2.479,1.442,2.71,4.209,5.534,4.842c3.171,0.692,5.649-0.807,8.301,0.922c0.865,0.576,0.807,1.845,1.845,1.845
			c1.902,0,2.997-0.462,4.9-0.462h4.957c2.536,0,2.824,2.998,4.899,4.381c5.188,3.458,7.379,8.301,13.604,8.301
			c4.092,0,5.533-4.15,9.626-4.15c2.018,0,3.113,0.23,5.13,0.115c-1.038,2.249-2.998,3.171-2.998,5.649
			c0,2.536,3.229,2.479,5.534,3.458c1.902,0.807,1.845,2.998,1.845,5.072c0,2.537-2.939,2.826-4.381,4.842
			c-2.305,3.171-2.998,5.764-2.998,9.684c0,1.326,1.845,1.614,1.845,2.94v8.646c0,2.191,2.826,2.191,4.842,2.939
			c2.767,1.038,3.689,3.056,6.225,4.381c4.554,2.422,6.801,5.996,11.989,5.996c1.96,0,2.882-1.614,4.842-1.614
			c1.556,0,2.133,1.614,3.689,1.614c1.211,0,1.672-1.094,2.766-1.614c1.384,2.074,0.693,4.669,2.998,5.533
			c3.458,1.269,5.938,0.462,9.223,2.076c2.249,1.095,2.133,3.632,4.15,5.072c2.767,1.96,5.995,1.903,7.148,5.073
			c0.922,2.478-0.346,5.418,2.075,6.455c2.709,1.153,4.669,0.29,7.378,1.384c5.592,2.305,5.649,10.375,11.759,10.375
			c3.574,0,5.188-2.767,8.761-2.767c2.364,0,3.633,0.922,5.995,0.922c6.341,0,7.725-8.07,14.065-8.07
			c5.189,0,11.068-2.19,11.068-7.378c0-2.709-2.536-3.747-2.536-6.456c0-1.614,2.305-1.729,2.767-3.229
			c1.959-6.282,2.305-10.145,3.919-16.601l0.922-0.231c2.249,2.826,5.362,2.019,8.992,2.306c2.133,0.173,2.94,2.075,5.072,2.075
			c1.729,0,2.536-1.038,4.151-1.615c1.326-0.461,3.458,0.059,3.458-1.383c0-1.901-1.614-2.708-1.614-4.612
			c0-2.19,0.921-3.343,0.921-5.534c7.263,0,8.301-8.3,11.068-14.987c1.153-2.766,1.153-6.455,4.15-6.455
			c2.191,0,3.344,1.383,5.534,1.383c1.442,0,1.557-1.268,2.767-2.075c1.788-0.692,1.96-3.228,3.92-3.228
			c2.709,0,3.17,2.94,5.072,4.841c2.249,2.249,4.496,3.229,5.303,6.456l-0.922,7.378c0.519,3.401,4.381,3.458,7.608,4.381
			c4.151,1.211,6.284,2.71,10.145,4.612c2.249,1.095,4.438,2.364,4.438,4.9v6.686c0,1.729-1.729,2.191-2.133,3.862
			c-0.518,2.075,0.174,3.632-0.691,5.534c-1.038,2.364-2.997,3.402-2.997,5.995c0,7.032,0.345,10.952,0.921,17.985l3.229-1.614
			c2.074,4.15,6.052,5.072,10.664,5.072h4.958c3.515,0,5.36-1.441,8.587-2.767c-0.23,1.614-0.692,2.479-1.383,3.92v1.614
			c0.865,0.058,1.383,0.231,2.249,0.231c1.786,0,2.593-1.21,4.208-1.845c2.825-1.153,5.016-1.038,7.378-2.998
			c1.614-1.325,1.038-3.804,2.998-4.612c5.476-2.363,9.396-1.267,14.987-3.228c3.574-1.211,4.727-4.612,8.531-4.612
			c1.96,0,2.133,2.363,3.689,3.458c2.479,1.729,4.496,2.076,6.456,4.381c2.018,2.422,1.787,5.303,4.612,6.687
			c5.303,2.651,8.012,4.785,12.22,8.992c1.153,1.153,2.998,1.383,2.998,2.997c0,1.384-1.615,1.615-2.306,2.767
			c-2.998,4.842-7.839,6.745-7.839,12.451c0,1.384,1.153,2.536,2.536,2.536c6.284,0,9.165-4.612,15.449-4.612
			c6.225,0,6.455,9.685,12.681,9.685c1.96,0,2.191-2.998,4.151-2.998c2.074,0,2.651,1.844,4.381,2.998
			c4.612,3.055,7.608,5.302,13.142,5.302c5.649,0,7.724-5.533,13.373-5.533c2.652,0,4.034,1.153,6.686,1.153
			c2.479,0,3.747-0.922,6.225-0.922c4.9,0,7.321,2.997,12.221,2.997c2.536,0,3.919-0.461,6.455-0.461
			c0.635,0.634,1.153,1.096,1.845,1.614c4.15-5.534,4.093-10.146,6.225-16.832c0.635-2.075,2.882-1.96,4.612-3.228
			c1.672-1.211,1.787-3.055,3.458-4.381c1.845-1.441,5.072-1.096,5.072-3.459c0-3.689-2.767-5.417-2.767-9.107
			c0-11.587,8.762-16.89,8.762-28.475c0-3.113-0.693-4.842-0.693-7.955c1.153-0.059,1.845,0,2.998,0
			c3.458,0,2.074-5.188,2.074-8.647c0.405-0.115,0.693-0.461,1.153-0.461c2.767,0,4.15,1.844,6.917,1.844
			c4.382,0,7.783-1.788,9.684-5.764c1.557-3.344-0.807-6.111,0.693-9.454c0.922-2.076,3.228-1.902,5.303-2.767
			c1.442-0.635,2.075-1.844,3.689-1.844c2.651,0,3.688,2.536,6.34,2.536c7.667,0,10.434-7.839,18.1-7.839
			c0.75,0,1.095,0.693,1.845,0.693c2.709,0,3.747-2.767,6.456-2.767c1.614,0,2.536,0.691,4.15,0.691c2.536,0,2.652-3.92,5.188-3.92
			c2.594,0,4.496,1.095,5.879,3.229c2.306-0.922,3.286-2.767,5.765-2.767c5.534,0,5.938,6.398,9.915,10.145
			c2.94,2.767,6.283,1.615,10.375,1.615c4.265,0,6.745-2.595,8.992-6.225c1.038-1.673,0.576-3.574,2.075-4.842
			c1.672-1.442,4.151,0.115,5.534-1.614c2.998-3.747,4.9-7.609,9.684-7.609c5.938,0,9.453,3.285,12.912,8.07
			c1.211,1.672,1.383,4.151,3.458,4.151c1.959,0,2.478-1.729,4.15-2.767c2.364-1.442,4.669-0.866,6.687-2.767
			c1.383-1.269,1.268-2.998,2.766-4.15l1.845,0.461c3.229-0.922,4.669-3.458,8.07-3.458c4.727,0,7.898,2.767,10.837,6.456
			c0.692,1.729,1.787,3.228,3.689,3.228c5.015,0,7.667-1.845,12.682-1.845c2.766,0,3.747,2.651,5.072,5.072
			c2.421,4.381,5.822,6.918,10.837,6.918c7.147,0,8.07-10.146,15.217-10.146c0.922,0,1.442,0.461,2.364,0.461h5.879
			c4.266,0,5.649-3.804,9.742-5.072c7.552-2.363,11.932-4.323,18.215-8.992c4.612-3.458,7.091-7.608,12.912-7.608
			c0.98,0,1.383,0.461,2.305,0.922c1.038-1.326,0.981-3.055,2.536-3.689c2.364-0.98,4.324-0.173,6.456-1.614
			c1.498-0.981,1.845-2.998,3.689-2.998c1.902,0,2.825,1.153,4.727,1.153c3.978,0,6.686,0.692,10.26-0.922
			c2.305-1.038,1.788-5.072,4.381-5.072c3.402,0,5.246,1.152,8.646,1.152c3.055,0,4.266-2.94,5.419-5.764
			c1.326-3.343,4.67-4.381,8.301-4.381c1.729,0,2.421,1.614,4.15,1.614c2.825,0,4.093-1.729,6.687-2.767
			c3.458-1.442,6.11-0.058,9.684-1.383c2.536-0.922,3.285-3.458,5.995-3.458c3.919,0,5.995,1.555,9.684,2.767
			c4.036,1.325,8.07,3.112,8.07,7.377c0,2.536-3.516,3.285-5.765,4.381c-0.692,2.133-2.305,3.055-2.305,5.303
			c0,8.416-8.415,13.604-16.831,13.604c-1.96,0-2.882-1.153-4.842-1.153c-2.247,0-2.708,2.306-4.611,3.458
			c-1.787,1.096-4.151,1.556-4.151,3.689c0,2.075,1.845,2.998,1.845,5.072c0,1.845-1.152,2.767-1.383,4.612l2.076,6.917
			c-0.058,1.269,0,2.018,0,3.285c0,7.436,12.22,7.263,12.22,14.699c0,5.475-6.918,6.744-6.918,12.22
			c0,2.422,2.941,2.709,5.304,3.229c3.285,0.748,5.418,0.979,8.3,2.767c5.476,3.4,5.649,8.415,9.223,13.834
			c2.249-0.98,3.919-1.788,5.072-3.92c0.576-1.096,0.807-2.536,2.076-2.536c2.881,0,4.381,1.269,7.148,2.075
			c1.845,0.518,4.15-0.173,4.841,1.614c0.519,1.325-0.346,2.536,0.462,3.689c2.018,2.882,5.764,3.401,5.764,6.917
			c0,1.556-0.692,2.364-0.692,3.92c0,3.285,4.842,3.632,4.842,6.917c0,2.479-1.499,3.632-2.768,5.764
			c-1.786,1.153-3.458,2.249-3.458,4.381c0,1.903,1.615,2.71,1.615,4.612c0,3.689-2.076,5.362-3.458,8.761
			c0.98,0.635,1.556,1.615,2.766,1.615c0.404,0,0.519-0.462,0.922-0.462c7.667,0,11.472,4.842,19.138,4.842
			c0.98,0,1.556-0.231,2.536-0.462l0.922,0.231c1.442,8.877,3.632,13.431,6.225,21.904c1.153,3.689,0.404,6.687,2.997,9.453
			c3.978,4.209,7.667,5.418,13.373,6.687c1.729,0.346,1.557,2.479,2.998,3.458c4.209,2.998,8.359,0.462,13.142,2.536
			c1.5,0.635,1.038,2.71,2.305,3.689c2.249,1.729,4.496-0.115,7.379,0.231c6.572,0.807,9.108,5.015,14.295,8.992
			c1.498,1.152,3.056,0.98,4.612,2.074c1.383,0.981,1.498,2.998,3.228,2.998c2.133,0,2.94-2.075,5.072-2.075
			c2.076,0,3.229,0.462,5.304,0.462c4.092,0,5.821-3.458,9.914-3.458c3.229,0,3.459,4.841,6.687,4.841
			c2.881,0,4.035-2.767,6.917-2.767c5.649,0,10.203-0.864,14.065,3.229c1.614,1.728,2.998,2.305,4.612,4.15
			c1.383,1.614,1.787,3.919,3.92,3.919c1.672,0,0.98-2.708,2.305-3.688c2.249-1.671,4.208-1.615,7.032-1.615
			c3.458,0,5.649,0.174,8.877,1.384c4.957,1.844,6.514,6.917,11.817,6.917c1.038,0,1.672-0.288,2.709-0.231
			c0.634,3.171-0.462,5.534,1.383,8.07c1.614,2.249,3.862,2.767,6.686,2.767c1.499,0,2.191-0.979,3.689-1.153l4.151,0.922h5.245
			c3.516,0,5.534-0.922,9.05-0.922c4.15,0,6.224,2.536,10.375,2.536c1.671,0,2.594-0.461,4.265-0.461
			c3.862,0,5.822,2.536,9.684,2.536c1.499,0,2.305-0.691,3.805-0.691c3.804,0,5.764,1.844,9.453,2.767
			c0.519,0.058,0.807,0.231,1.326,0.231c5.534,0,8.127-3.92,13.661-3.92s7.782,3.747,13.142,5.303
			c5.765,1.673,9.339,0.692,14.987,2.305c2.651,0.75,2.767,3.633,5.073,5.073c4.726,2.94,8.877,1.383,13.834,3.919
			c3.343,1.729,2.651,7.378,6.456,7.378c2.421,0,2.652-3.689,5.072-3.689c1.268,0,1.96,0.691,3.228,0.691
			c1.845,0,2.767-1.152,4.612-1.152c4.381,0,6.686,1.499,10.837,2.767c2.018,0.576,2.709,2.766,4.841,2.766
			c1.788,0,0.981-2.766,1.615-4.381c1.326-3.285,4.554-4.381,8.128-4.381c2.132,0,3.343,0.173,5.475,0.231
			c0.462-2.132-0.748-5.303,1.384-5.303c2.997,0,4.61,1.269,7.378,2.305c1.326,0.462,2.651,0.059,3.689,0.922
			c1.614,1.384-0.403,4.093,1.153,5.534c1.614,1.499,3.516,0.635,5.764,0.692c2.595,0.059,3.978,0.922,6.572,0.922
			c1.557,0,2.305-0.692,3.862-0.692h4.727c3.804,0,5.821-1.614,9.511-2.536c2.19,4.381,3.343,9.453,8.185,9.453
			c2.825,0,3.343-2.997,5.418-4.841c2.421,2.421,5.765,0.345,8.301,2.536c1.902,1.672,0.461,5.764,2.997,5.764
			c2.422,0,2.651-3.689,5.073-3.689c2.594,0,3.689,1.788,6.225,2.306c2.074,0.404,3.458-0.403,5.533,0
			c5.418,1.095,7.552,4.265,12.682,6.456c6.168,2.651,10.145,2.594,16.831,3.688l0.001,0.001c1.152-1.037,2.133-2.074,3.689-2.074
			c0.807,0,0.692,1.267,1.152,1.844c1.442,1.729,2.998,2.767,5.304,2.767c1.787,0,2.825-0.173,4.61-0.462l2.767,0.691
			c1.903-0.748,3.055-0.979,4.842-1.844c0.289,3.458,3.458,5.534,6.917,5.534c4.785,0,7.724-2.767,10.145-6.917
			c2.306,2.305,4.612,2.767,7.84,2.767c3.862,0,8.588-0.058,9.222-3.92c1.673,1.325,3.171,1.614,5.362,1.614h7.32
			c3.171,3.171,5.995,3.92,9.915,5.996c2.651,1.383,3.574,3.574,6.455,4.381c6.687,1.902,8.359,9.222,15.333,9.222
			c4.785,0,5.476-6.917,10.261-6.917c3.17,0,4.61,1.788,7.608,2.767c7.205,2.364,11.817,2.709,18.445,6.456
			c3.805,2.133,2.133,6.629,3.92,10.606c1.211,2.651,3.689,2.767,5.764,4.841c2.076,2.075,2.364,5.303,5.303,5.303
			c2.882,0,4.727-0.345,7.148-1.845c0.866-0.518,0.807-1.844,1.844-1.844c1.442,0,2.249,0.692,3.689,0.692
			c2.19,0,3.112-2.075,5.303-2.075c2.594,0,3.171,3.458,5.764,3.458c5.823,0,8.705-3.458,14.526-3.458
			c4.612,0,6.456,3.458,10.606,5.534l1.845,0.461c12.797-3.63,19.714-8.3,32.971-8.3c2.825,0,6.917-0.749,6.917,2.074
			c0,1.326-1.614,1.673-1.614,2.998c0,1.557,2.133,1.557,2.997,2.767c1.442,2.018,2.595,3.919,5.131,3.919h4.727
			c2.767,0,3.285,3.689,6.051,3.689c3.633,0,3.517-5.995,7.148-5.995c3.458,0,4.958,2.651,7.378,5.072
			c3.458,3.458,4.957,6.11,6.917,10.606c1.788,4.209,2.018,9.684,6.572,9.684c3.689,0,6.11-3.515,6.11-7.204
			c0-1.211-0.231-1.902-0.231-3.113c0-2.074,0.692-3.285,0.692-5.361c0-2.998-1.614-4.612-1.614-7.608
			c0-5.765,7.206-7.148,12.97-7.148h4.496c2.651,0,3.574-2.075,5.821-3.458c2.767-1.73,4.324-3.055,6.456-5.534
			c3.632-4.208,7.09-5.822,8.992-11.068c1.614-4.381,1.441-7.955,5.072-10.837c1.787,1.326,2.363,2.71,4.381,3.689
			c1.326-2.363,0.519-6.225,3.228-6.225c2.133,0,2.767,2.134,4.151,3.689c0.461-1.21,0.98-2.536,2.305-2.536
			c3.805,0,5.649,2.767,9.453,2.767c2.364,0,2.882-2.536,5.073-3.458c7.09-3.055,5.937-10.665,8.069-17.985
			c0.577-2.018,2.71-2.305,3.689-4.15c1.788-3.402,1.038-6.053,2.306-9.684c1.325-3.689,4.092-5.534,4.381-9.453
			c4.554-3.402,4.438-10.607,10.145-10.607c4.555,0,6.398,3.805,10.952,4.151v-7.378l3.804,1.153
			c2.422-3.689,5.073-6.225,9.454-6.225c2.074,0,2.709,2.248,3.458,4.15c1.442,3.516,1.787,5.937,3.228,9.453
			c1.844-1.845,3.748-2.249,4.612-4.611c0.692-1.96-0.346-3.689,0.692-5.534c1.384-2.479,3.286-3.055,5.303-5.072
			c4.555-4.555,7.84-8.301,14.295-8.301c3.343,0,4.958,2.305,8.301,2.305c1.787,0,1.902-2.074,3.228-3.228
			c1.153-1.038,2.249-0.98,3.689-1.383c1.671-0.519,2.133-2.536,3.92-2.536c2.363,0,2.709,3.228,5.072,3.228
			c1.902,0,2.479-2.075,4.381-2.075c4.381,0,6.975,0.346,11.067,1.845c1.326,0.462,2.537-0.576,3.689,0.231
			c1.384,0.979,1.096,2.823,2.536,3.689c5.362,3.343,9.569,3.458,15.909,3.458c2.651,0,3.863-1.788,6.456-2.306
			c2.767-0.576,4.669,0.749,7.378-0.23c2.536-0.922,2.364-4.842,5.072-4.842c3.458,0,4.612,3.689,8.07,3.689
			c1.326,0,1.383-1.788,2.536-2.305c3.402-1.615,5.879-0.462,9.684-0.462c1.729,0,2.421,1.845,4.15,1.845
			c5.708,0,8.82-1.845,14.526-1.845c2.133,0,2.536,2.305,4.15,3.689c3.113,2.708,6.053,2.536,10.145,2.536v4.668
			c0,1.442,1.845,1.442,2.536,2.71c1.442,2.708,1.268,6.686,4.381,6.686c2.249,0,2.133-3.919,4.381-3.919
			c2.191,0,3.113,2.074,5.303,2.074c2.71,0,3.055-3.112,5.303-4.61c2.883-1.903,5.938-1.153,8.301-3.69
			c1.729-1.844,0.75-3.977,1.152-6.455c0.346-2.364,2.306-3.343,2.306-5.765c0-2.363-1.153-3.632-1.153-5.995
			c0-2.479,3.574-1.787,5.534-3.228c4.15-3.113,7.032-4.381,11.989-5.995c0.922,1.614,2.134,2.881,3.92,3.458
			c1.844,0.287,2.94,0.461,4.612,1.152c0.576-1.729-0.173-3.228,0.922-4.611c1.729-2.134,5.188-0.692,6.455-3.229l-0.922-3.458
			l-0.244-1.804c3.436-1.309,6.349-3.038,10.851-3.038c8.646,0,12.565,6.917,21.212,6.917c12.566,0,17.523-11.529,30.089-11.529
			c2.997,0,5.995,0,8.991,0c8.185,0,11.077,6.897,18.562,10.145c8.193,3.555,14.511,1.407,22.133,5.996
			c4.252,2.559,3.208,7.87,7.378,10.605c2.862,1.876,6-0.01,9.223,1.384c1.196,0.517,2.251,1.121,3.197,1.792l0.262-8.652
			c0-2.248,0.691-3.574,0.691-5.821c0-4.323-3.631-6.052-4.15-10.375c-9.339-0.922-14.757-9.568-14.757-18.907
			c0-11.529,4.843-17.753,4.843-29.282c0-3.401-3.92-4.439-3.92-7.839c0-1.671,0.174-3.919,1.845-3.919
			c1.269,0,1.96,0.692,3.229,0.692c3.285,0,4.554-3.228,7.839-3.228c1.442,0,1.902,1.614,3.343,1.614
			c1.211,0,1.442-1.729,2.651-1.729c1.442,0,2.191,0.115,3.633,0.115c5.475,0,4.091-8.013,8.587-11.068
			c3.689-2.536,7.032-1.211,11.068-3.228c4.842-3.632,8.934-5.706,10.837-11.529c3.977-5.303,8.877-5.995,12.22-11.759
			c1.614-2.823,2.824-4.438,3.689-7.608c0.633-2.422,1.152-5.303,3.688-5.303c1.73,0,2.421,1.614,4.151,1.614
			c2.421,0,3.054-2.478,5.072-3.689c1.441-0.865,2.823-1.21,3.458-2.767c0.922-2.19,0.692-4.727,2.998-5.303l4.841,0.922h1.845
			v-4.668c0-3.689,3.458-5.188,3.458-8.877v-5.649c0-2.882,2.132-3.978,3.229-6.629c2.421,1.442,3.515,3.055,4.381,5.765l4.15-1.153
			c2.191,0.231,3.689-0.231,5.534,0.922c0.692,0.404,0.748,1.614,1.614,1.614c2.651,0,2.421-4.612,5.072-4.612
			c3.92,0,5.534,3.458,9.454,3.458c3.515,0,5.244-2.305,8.762-2.305c4.957,0,4.726,8.301,9.684,8.301
			c3.574,0,2.421-6.918,5.995-6.918c3.919,0,5.764,2.998,9.684,2.998c0.749,0,0.576-1.21,1.153-1.614
			c2.132-1.498,4.092-0.98,6.686-1.614c-2.536-3.516-5.649-3.977-8.3-7.378c-2.191-2.824-2.134-7.378-5.765-7.378
			c-2.249,0-2.825,2.191-4.612,3.459c-1.383-1.556-2.997-2.306-2.997-4.382c0-2.074,2.708-1.901,4.381-2.997
			c4.611-3.17,8.011-3.861,13.603-4.612c3.285-0.461,7.378-0.865,7.378-4.15c0-3.861-3.516-6.687-7.378-6.687
			c-1.326,0-1.902,0.922-3.228,0.922c-2.536,0-2.825-3.112-5.303-3.689c0.231-2.766-1.384-4.15-1.384-6.917
			c0-2.248,1.615-3.285,1.844-5.534c1.153-0.057,1.787-0.23,2.94-0.23c1.959,0,1.902-2.536,3.285-3.92
			c1.5-1.498,4.612-0.979,4.612-3.112c0-1.153-0.404-1.902-0.922-2.882l0.231-0.922c3.228-0.807,5.188-0.922,8.531-1.153v-1.67
			c0-4.785-3.285-9.396-8.07-9.396c-5.533,0-8.184,3.458-13.718,3.458c-2.94,0-2.882-3.977-2.882-6.917
			c0-3.17,2.536-4.669,2.536-7.84c0-3.4-2.249-4.898-3.458-8.07c-2.19,1.269-3.747,2.075-6.283,2.075c-1.21,0-1.96-0.115-3.17-0.115
			c-0.576-4.553-0.289-7.204-1.384-11.643c1.671-0.518,2.94-0.173,4.612-0.693c1.844-0.576,1.384-2.881,1.614-4.841
			c0.346-2.998,0.692-4.727,1.384-7.609c0.231-0.518,1.153-1.268,1.153-1.845c0-2.477-1.269-4.091-3.229-5.533v-1.153
			c4.727,0.346,7.494-0.922,11.99-2.306c2.88-0.899,2.388-4.631,2.763-7.588H60.139C59.952,930.028,59.781,930.633,59.624,931.28z"
			/>
		<path fill="#ED2939" d="M1892.816,49.588c-0.519,0-0.807,0.173-1.326,0.231v2.709c0,2.536,1.153,3.862,1.153,6.398
			c0,3.92-4.842,4.265-6.226,7.955c-1.037,2.767-0.922,4.668-0.922,7.608c0,4.785-0.172,7.666,1.153,12.221
			c0.404,1.498,2.306,1.845,2.306,3.458c0,2.132-2.537,2.708-2.537,4.841c0,5.361,3.459,8.012,3.459,13.373
			c0,3.805-2.306,5.649-2.306,9.454c0,2.247-2.132,3.919-4.381,3.919c0.231,2.363,0.692,3.632,0.692,5.995
			c0,1.153-0.922,1.614-0.922,2.767c0,3.401,2.134,5.361,5.304,6.917c-1.384,1.556-3.575,0.807-5.073,2.306
			c-2.651,2.651-1.038,5.821-2.075,9.453c-1.728,5.879-4.611,8.877-4.611,14.987c0,4.612,8.991,2.998,8.991,7.609
			c0,5.245-5.36,8.3-10.605,8.3c-3.229,0-4.382-3.228-7.609-3.228c-0.922,0-1.383,0.461-2.305,0.461
			c-2.306,0-3.458-1.614-5.765-1.614c-1.268,0-1.96,0.462-3.228,0.462c-2.709,0-2.594-4.612-5.303-4.612
			c-2.075,0-2.767,2.305-4.842,2.305c-4.553,0-6.571-3.689-11.125-3.689c-1.787,0-2.767,0.346-4.554,0.231l-0.231,2.075
			c-0.057,2.593-0.23,4.034-0.23,6.629c0,3.574-3.229,5.072-3.229,8.646v4.496c0,0.865,1.153,1.038,1.153,1.901
			c0,2.882-2.594,3.748-5.303,5.073c-1.038,1.845-1.094,3.747-2.998,4.611c-2.19,0.981-4.265,0.462-5.764,2.306
			c-1.21,1.498-0.922,3.516-2.767,4.15c-3.228,1.095-6.225,1.153-7.839,4.151c-2.536,4.726-1.498,8.358-2.998,13.603
			c-1.153,4.034-2.305,6.283-2.305,10.491c0,2.306,0.692,3.574,0.692,5.879c0,3.286-1.845,5.016-1.845,8.301
			c0,2.536,1.153,3.92,1.153,6.456c0,4.323-4.496,5.822-4.496,10.144c0,1.096,0.173,1.672,0,2.767
			c-2.248-0.518-3.458-1.383-5.765-1.383c-1.614,0-2.421,0.691-4.035,0.691c-2.248,0-2.363-2.767-3.228-4.841
			c-1.038-2.536-1.787-3.978-2.998-6.456c-0.576-1.21-0.922-2.767-2.305-2.767c-3.344,0-4.496,3.458-7.84,3.458
			c-5.533,0-2.305-11.759-7.839-11.759c-2.593,0-2.767,3.229-5.072,4.381c-3.92,1.96-6.572,2.998-8.992,6.687
			c-2.882-2.075-4.092-5.072-7.666-5.072h-4.785c-1.67-1.499-2.824-2.767-5.072-2.767c-0.749,0-1.094,0.691-1.845,0.691
			c-2.017,0-2.191-2.478-2.767-4.381c-0.634-2.075-2.248-2.652-3.228-4.612s-1.21-4.612-3.458-4.612
			c-4.208,0-6.514,1.326-10.606,2.306c0.23,3.343,2.074,4.957,2.074,8.3c0,4.036-3.458,5.477-4.841,9.223
			c-1.269,3.458-1.153,8.07-4.842,8.07c-4.092,0-6.282-1.384-10.375-1.384c-0.403,0-0.518,0.404-0.922,0.462v4.554
			c0,2.075,0.692,3.285,0.692,5.361c0,1.787-1.901,2.767-3.689,2.767c-2.536,0-3.458-2.537-5.995-2.537
			c-5.591,0-4.265,7.725-8.301,11.759l-0.921-0.231c-0.173-1.094-0.346-1.729-0.693-2.766c-2.593-4.496-7.263-3.054-11.758-5.534
			c-4.899-2.709-6.859-7.148-12.451-7.148c-1.729,0-2.422,1.845-4.151,1.845c-1.729,0-1.67-2.363-3.228-2.998
			c-6.225-2.536-9.915-4.612-16.601-4.612c-2.018,0-3.056,1.384-5.072,1.384c-5.534,0-8.301-3.229-13.835-3.229
			c-1.96,0-1.729,3.459-3.689,3.459c-1.325,0-1.901-0.922-3.228-0.922c-2.536,0-2.363-3.805-4.842-4.381
			c-2.421-0.577-3.746-0.923-6.225-0.923c-1.325,0-1.614,1.499-2.767,2.075c-0.692-2.075-1.383-3.343-1.383-5.534
			c-4.899,1.212-6.052-5.591-6.917-10.491h-6.225c-0.692-2.536-1.384-4.322-3.458-5.879c2.421-2.421,2.767-4.612,5.303-6.687
			c2.305-1.901,4.841-0.114,7.608-1.152c2.536-0.922,2.076-3.977,2.076-6.687c0-3.861-4.554-4.034-7.839-5.995
			c-3.632-2.191-4.842-4.668-7.379-8.07c-1.383-1.901-0.749-4.265-2.767-5.534c-5.015-3.17-9.28-1.325-14.756-3.688
			c-6.513-2.825-8.761-7.09-12.912-12.682c-6.743-8.992-12.277-16.601-23.518-16.601c-1.383,0-2.363,0.576-3.458,1.383
			c-8.818,4.784-3.689,16.831-11.529,23.057c-1.269,2.536-2.767,3.861-2.767,6.687c1.557-0.174,2.651-0.866,3.92,0
			c2.19,1.498,1.442,5.533,4.15,5.533c1.152,0,1.844-0.231,2.998-0.058v1.383c0,1.557-0.577,2.364-1.153,3.748
			c-1.325-0.174-1.902-1.153-3.229-1.153c-0.748,0-1.037,0.922-1.037,1.672v13.718c0,6.11,1.959,9.396,1.959,15.506
			c0,5.13-1.268,8.185-3.688,12.682c-1.038,1.959-3.459,2.421-3.459,4.668v4.496c0,0.807,0.462,1.326,0.462,2.133
			c0,4.208-3.689,5.591-6.456,8.761c-2.19,2.536-1.96,6.686-5.303,6.686c-2.767,0-2.997-3.343-5.533-4.381
			c-2.306,3.113-2.767,5.765-2.767,9.684c0,2.422,1.614,3.574,1.614,5.996c0,2.305-2.825,2.478-3.689,4.612
			c-0.922,2.305-2.823,3.458-6.917,3.112c-5.246-2.94-7.826-3.648-11.299-6.572c-3.099-2.61-6.988-1.664-9.222-5.072
			c-1.281-1.952-0.62-4.988-2.767-5.995c-6.936-3.254-10.037-6.668-16.601-10.375c-3.082-1.741-3.862,5.303-7.379,5.303
			c-8.3,0-8.178-11.176-15.909-14.065c-3.024-1.13-5.938-1.5-8.3,0.691c-1.615,1.497-0.167,3.868-1.615,5.533
			c-0.251,0.289-0.516,0.521-0.948,0.795c-2.922,4.356-4.124,10.042-9.196,10.042c-1.845,0-2.767-1.383-4.612-1.383
			c-2.536,0-5.534,1.153-5.534,3.689c0,3.458,3.689,4.841,3.689,8.3c0,1.153-1.384,1.615-1.384,2.767
			c0,2.191,3.229,2.421,3.229,4.612c0,13.027-8.301,19.252-8.301,32.279c0,3.689,2.767,5.534,2.767,9.223
			c0,5.995-3.458,8.992-4.612,14.757c-1.268,6.34,0.109,10.948-3.228,16.601c-3.81,6.452-10.264,5.758-16.601,9.684
			c-6.69,4.144-7.418,10.122-11.528,17.061c-2.922,4.934-7.597,4.639-12.912,6.918c-7.596,3.255-11.067,8.761-19.368,8.761
			c-5.764,0-8.992-1.845-14.756-1.845c-11.182,0-15.563,10.606-26.746,10.606c-3.574,0-5.648-0.922-9.223-0.922
			c-7.839,0-10.224,7.19-17.523,10.144c-2.545,1.031-4.876,1.791-7.65,2.77c-0.915,1.629-1.379,3.466-1.906,4.844
			c-0.08,0.208-1.817,2.902-2.275,3.361c-0.651,0.651-1.018,1.731-1.796,2.161c-1.244,0.687-3.125,2.62-4.191,3.481
			c-1.976,1.597-3.683,3.044-5.268,5.041c-1.329,1.674-3.164,3.205-5.149,4.081c-6.267,2.769-17.566-0.654-23.11,2.041
			c-4.213,2.048-6.505,12.261-8.621,16.085c-1.524,2.755-4.066,0.667-5.867,3.722c-0.951,1.613-1.055,3.777-1.967,4.992h1401.991
			c-2.737-4.142-5.031-9.003-10.325-9.003c-1.283-1.71-0.657-3.615-0.864-6.225c-0.346-4.496-1.73-6.917-2.767-11.298
			c-0.98-4.208-0.807-7.032-3.229-10.606c-1.441-2.19-3.285-3.112-3.689-5.764l1.384-8.301v-5.534
			c-2.824-2.536-6.053-0.864-9.453-2.536c-3.863-1.901-3.748-5.821-5.073-9.915c-1.095-3.343-4.15-4.726-4.15-8.3
			c0-3.574,3.919-4.727,3.919-8.301c0-5.88-11.989-3.343-11.989-9.223c0-0.807,0.922-1.037,0.922-1.844
			c0-0.462-0.346-0.749-0.461-1.153h-4.785c-4.151,0-6.052-4.612-6.052-8.761c0-2.998-1.153-4.784-1.153-7.781
			c0-0.577,0.173-0.866,0.231-1.442l0.922-0.231c0.691,0.231,1.094,0.692,1.845,0.692c2.882,0,3.228-3.804,3.228-6.686
			c0-3.112-1.844-4.727-1.844-7.839c0-2.132,4.381-1.325,4.381-3.458c0-1.96-2.018-2.363-2.767-4.15
			c-1.556-3.575-0.923-5.996-0.923-9.857c0-1.557-0.288-2.421,0-3.978c1.615,0,2.537,0.173,4.151,0l0.231-1.614l-0.693-2.998
			c0.693-1.729,2.536-1.786,3.689-3.228c0.98-1.269,0.634-3.689,2.306-3.689c0.748,0,1.094,0.692,1.844,0.692
			c2.537,0,1.73-4.035,3.92-5.304c-0.922-1.441-1.614-2.421-1.614-4.15c0-1.845,2.074-2.767,3.919-2.767
			c0.98,0,1.325,0.922,2.306,0.922c0.461,0,0.749-0.346,1.153-0.461c0.345-2.882,0.172-4.496,0.057-7.378
			c1.326,0,2.536,0.461,3.402-0.462c1.325-1.44,0.288-4.611,2.305-4.611c1.269,0,2.017,0.404,3.228,0.692
			c0.981-3.977,3.92-5.591,3.92-9.684c0-6.572-5.765-9.339-5.765-15.909c0-3.113,1.844-4.727,1.844-7.839
			c0-2.594-1.614-3.862-1.614-6.456c0-1.441,0.807-2.191,1.844-3.228l-1.153-5.073c-2.191,0-4.207-0.748-5.764-2.305
			c0.461-3.054,0.922-5.245,1.153-8.301l-1.844-9.684l1.152-5.534c-0.807-2.477-2.997-3.4-2.997-5.995
			c0-1.498,1.153-2.19,1.153-3.689c0-3.458-2.479-4.957-3.92-8.07c-0.922-2.074-0.346-4.034-2.075-5.533
			c-2.132-1.902-5.244-0.231-6.917-2.536l-0.691,0.922c-0.807,4.208-5.937,3.688-10.146,3.688c-1.844,0-3.054-0.518-4.381-1.844
			v2.305h-4.553c-1.902,0-2.767,1.383-4.669,1.383c-4.842,0-7.321-2.248-11.528-4.611c-2.422-1.326-5.13-0.346-6.687-2.537
			c-1.441-2.017-1.901-3.804-3.919-5.302l-1.844,0.461c-2.248-1.96-4.092-3.458-7.148-3.458c-3.574,0-5.245,2.249-7.839,4.841
			c-1.499-0.864-1.671-2.421-2.536-3.919c-0.693-1.21-2.075-1.556-2.075-2.998c0-2.997,2.075-4.496,2.075-7.493
			c0-7.897-6.687-11.299-13.835-14.872c-1.094,2.248-3.228,3.229-5.764,3.229c-3.689,0-6.052,0.057-9.454-1.384
			c-2.19-0.922-1.152-4.092-3.228-5.303c-3.054-1.787-6.052-0.404-8.761-2.767c-3.17-2.767-3.401-5.707-6.456-8.761
			c-3.112,1.845-2.939,5.13-5.764,7.379c-1.384-1.038-2.478-1.614-4.266-1.614c-2.536,0-4.035,0.691-6.571,0.691
			c-3.516,0-8.629-2.681-11.569-4.641c-2.701,4.306-6.087,8.289-8.159,12.999c-4.664,10.595-13.732,28.268-27.422,27.664
			c-5.814-0.256-10.096-3.479-14.436-5.982c-4.702,0.683-7.181,0.625-11.677,0.625c-2.421,0-3.171,2.767-5.592,2.767
			c-8.992,0-14.007-1.786-22.596-4.612c-3.515,0-5.706-1.383-9.222-1.383c-2.939,0-3.632,3.92-6.572,3.92
			c-2.997,0-4.496-2.076-7.493-2.076c-0.922,0-1.384,0.461-2.306,0.461c-6.282,0-9.107-3.631-14.756-6.455
			c-4.438-2.191-7.32-2.767-11.759-4.842c-8.588-4.034-13.776-6.398-20.521-13.142c-2.19-2.19-6.224-1.96-6.224-5.072
			c0-3.805,1.095-5.822,2.305-9.453c-2.825-0.693-3.862-2.767-6.687-2.767c-1.21,0-1.094,2.074-2.305,2.074
			c-1.901,0-1.325-2.767-2.36-4.381c-5.886,1.651-0.867-3.475-5.654-5.198c-8.968-3.227-22.495-7.582-26.329-17.079l-9.868,0.373
			c-2.364,0-3.688-1.153-6.052-1.153c-2.709,0-2.536,3.401-4.151,5.534c-2.593,3.343-5.072,5.534-9.28,5.534h-4.726
			c-3.689,0-5.131-3.459-8.82-3.459c-1.845,0-2.305,2.306-4.15,2.306c-1.672,0-1.441-2.306-2.306-3.689
			c-1.614-2.651-3.574-3.343-5.533-5.764c-3.344-4.093-7.494-3.633-12.22-5.995c-3.689-1.846-3.977-6.918-8.128-6.918h-4.727
			c-2.363,0-3.688,1.153-6.052,1.153c-3.977,0-5.475-3.112-9.223-4.381c-5.706-1.96-10.663-2.305-13.603-7.608
			c-1.902-3.459-1.499-6.515-4.381-9.223c-2.249-2.075-4.727-1.614-7.378-3.228c-1.383-0.808-1.614-2.767-3.228-2.767
			c-1.555,0-1.44,2.536-2.997,2.536c-0.346,0-0.576-0.231-0.922-0.231c-3.862-1.269-6.513-0.461-9.915-2.536
			c-2.421-1.498-2.421-4.15-5.072-5.303c-5.591-2.421-8.416-4.669-13.373-8.07c-3.92-2.709-6.513-5.072-11.298-5.072
			c-3.285,0-5.015,1.383-8.301,1.383c-4.437,0-5.245-4.785-8.761-7.378c-0.461,0.576-1.153,0.864-1.153,1.67v4.727
			c0,3.574-1.901,5.303-3.689,8.359c-0.979,1.671-0.576,4.381-2.536,4.381c-2.536,0-3.919-0.922-6.455-0.922
			c-4.958,0-8.301-0.635-12.682,1.614c-2.594,1.325-2.305,4.496-5.072,5.534c-1.672,0.576-2.882-0.289-4.612,0
			c-1.384,0.231-1.787,1.845-3.229,1.845c-0.921,0-1.383-0.922-1.383-1.845c0-3.458,2.998-4.842,2.998-8.301
			c0-4.265-2.478-6.283-4.612-9.915c-1.499-2.536-0.287-5.648-2.767-7.147c-3.574-2.133-6.398-1.615-10.606-1.615
			c-2.19,0-3.112,2.075-5.303,2.075c-2.305,0-3.458-1.095-5.764-1.383c-2.248-0.231-4.554,0.403-5.534-1.615
			c-1.096-2.249-0.231-4.15-1.153-6.455c-1.614-0.115-2.478,0.23-4.092,0.23c-3.978,0-5.764-3.228-9.741-3.228
			c-1.153,0-1.384,1.383-2.536,1.383C1895.352,50.51,1894.486,49.588,1892.816,49.588z"/>
		<path fill="#FFFFFF" d="M1161.081,490.061c-6.562-1.558-8.835,7.533-10.059,11.763c-1.143,3.952-4.533,0.506-6.586-0.48
			c-6.376-3.063-2.313,5.683-5.627,8.162c-1.811,1.355-1.748,3.376-1.557,6.722c0.141,2.489,1.062,6.198,2.036,8.524
			c1.997,4.768,7.217,8.575,10.897,12.484c11.512,12.227,25.677,16.019,26.582,35.772c0.128,2.8,0.748,9.454,3.113,11.163
			c2.233,1.613,12.762,2.814,12.932,2.881c0.264,0.104,0.435-0.05,0.599,0.12c0.174,0.18,0.325,0.282,0.479,0.48
			c0.237,0.306,0.168,0.737,0.479,1.081c0.436,0.484,1.759,6.374,1.797,7.323c0.002,0.056,0.066,0.105,0.119,0.119
			c1.927,0.51,3.686-2.175,4.909-0.6c1.678,2.16,1.005,6.884,2.275,9.363c2.134,4.164,4.06,5.951,6.586,9.723
			c2.544,3.798,5.099,8.732,6.705,12.965c1.286,3.394,2.638,9.841,3.923,13.687c-0.147,6.367-4.469,8.558-7.525,13.514
			c-2.651,4.265-2.478,7.781-5.995,11.299c-1.845,2.766-4.15,3.458-6.455,5.764c-1.556,1.556-0.462,3.515-0.692,5.764
			c-0.172,1.73-1.383,2.363-2.074,3.92c1.095-0.173,1.672-0.173,2.767,0c-0.115,2.248,0.289,4.092-1.153,5.765
			c-0.634,0.748-1.844,0.806-1.844,1.844c0,1.441,0.115,2.248,0,3.689c-4.323,0.577-7.839,3.516-7.839,7.839
			c0,5.592,3.862,10.837,9.453,10.837c3.171,0,4.9-1.614,8.07-1.614c2.249,0,3.056,2.305,5.303,2.305
			c3.805,0,5.072-2.997,8.531-4.611c0.981-0.462,1.903,0.345,2.767-0.231c1.557-1.095,2.191-2.998,4.151-2.998
			c2.018,0,2.825,1.729,4.15,3.229c1.788,2.017,3.516,2.421,5.534,4.15c5.361,4.668,10.375,7.897,10.375,14.987
			c0,1.441-0.692,2.248-0.692,3.689c0,6.859,5.995,9.74,5.995,16.601c0,5.937-4.265,8.301-6.917,13.604
			c-0.577,1.153-2.075,1.441-2.075,2.767c0,1.786,0.231,2.767,0.231,4.553c0,3.402-4.668,2.94-6.917,5.361
			c-1.096,1.21-0.922,2.652-0.922,4.382c0,2.939,2.767,4.207,2.767,7.147c0,6.341-4.265,8.935-6.687,14.757
			c2.364,0.576,4.439,1.498,4.842,3.919l-1.384,8.763v6.859c0,3.228-4.611,2.363-6.917,4.668c-4.092,4.093-4.381,7.84-8.531,11.99
			c-0.749-4.784-1.441-10.606-6.225-10.606c-1.441,0-1.556,2.305-2.998,2.305c-5.072,0-6.859-3.977-11.298-6.456
			c-5.245-2.939-9.108-3.688-13.142-8.069c-1.844-2.018-1.96-3.977-3.689-6.225c-1.845-2.422-4.208-2.537-6.917-3.92
			c-2.825-1.441-4.323-3.401-5.073-6.456c-0.461-1.844-0.403-4.381-2.305-4.381c-2.478,0-3.746,1.614-6.225,1.614
			c-4.496,0-7.148-2.536-9.684-6.224c-2.882-4.209-5.072-6.918-5.072-11.99c0-2.479,2.421-3.112,2.997-5.534
			c0.75-3.171,1.153-5.476,3.689-7.378c1.269-0.922,2.191-1.672,3.689-2.076c1.095-0.289,2.767,0,2.767-1.153
			c0-5.016-4.208-7.666-8.992-9.222c-2.132-0.692-4.034,0.922-5.765-0.462c-1.844-1.442-1.901-3.343-2.766-5.534
			c-0.693-1.787-2.536-2.421-2.536-4.381c0-2.018,2.881-1.787,3.919-3.458c1.442-2.305,2.364-3.747,2.536-6.455
			c-3.054,0.748-4.322,2.767-7.377,2.767c-5.073,0-6.225-6.456-11.299-6.456c-1.094,0-1.671,0.692-2.767,0.692
			c-1.324,0-1.959-1.153-3.284-1.153h-4.727c-1.153,0-1.729,0.462-2.882,0.462h-5.418c-3.112,0-4.323,2.998-7.436,2.998
			c-2.132,0-3.17-1.153-5.303-1.153c-2.536,0-3.689,1.786-6.225,2.074c-1.441,0.115-2.536-0.807-3.688,0
			c-2.422,1.729-2.018,4.323-3.459,6.918c-2.421,4.322-4.957,6.571-5.303,11.528l-0.922,0.23c-3.515-1.152-5.533-2.074-9.222-2.074
			c-6.456,0-8.532,6.917-14.987,6.917c-1.96,0-2.191-2.306-2.767-4.15c-5.821-5.822-9.626-8.762-12.682-16.14
			c-0.979-2.364-3.228-2.94-4.15-5.303c-1.672-4.093-1.325-9.569-5.765-9.915l-18.906,5.764c-2.767-0.692-3.574-3.458-6.456-3.458
			c-1.325,0-1.901,0.922-3.228,0.922c-1.902,0-2.018-2.997-3.92-2.997c-3.458,0-5.245,1.845-8.531,2.767
			c-2.825,0.807-5.245-0.462-7.609,1.383c-2.132,1.671-2.132,5.072-4.841,5.072c-1.787,0-2.422-1.614-3.458-2.997
			c-2.191-2.826-4.381-4.555-4.381-8.185c0-6.687,6.686-9.108,6.686-15.794c0-2.076-0.922-4.381-2.997-4.381
			c-7.84,0-6.687,11.298-13.835,14.525c-4.092,1.845-7.089,0.749-11.768,3.674c-0.387,1.53-0.303,1.694-0.221,1.86
			c3.892,7.852,0.217,13.955,3.228,22.135c3.098,8.42,8.761,11.298,8.761,20.29c0,4.784-6.628,3.574-10.606,6.225
			c-0.231-2.997-0.461-6.917-3.458-6.917c-5.188,0-7.032,5.303-12.22,5.303c-3.054,0-3.92-3.689-6.974-3.689h-4.496
			c-1.326,0-1.96,0.692-3.286,0.692c-4.092,0-5.591-3.919-9.684-3.919c-1.555,0-1.671,2.305-3.228,2.305
			c-1.325,0-1.901-1.153-3.228-1.153c-2.594,0-3.632,2.306-6.225,2.306c-2.94,0-2.363-5.303-5.303-5.303
			c-4.036,0-8.588,0.807-9.223,4.841c-1.901-0.922-2.939-2.074-5.072-2.074c-4.265,0-6.628,1.844-10.894,1.844h-5.418
			c-1.672,0-1.96,2.306-3.633,2.306c-1.325,0-2.017-0.692-3.343-0.692c-5.649,0-8.3,3.919-13.949,3.919v8.761
			c-2.478,0-3.632,1.615-6.11,1.615c-2.422,0-3.632-1.499-5.996-1.845c-7.665-1.269-12.046-1.729-19.828-2.998
			c-1.21,0.172-1.845,0.692-3.054,0.692h-4.727c-1.845,0-2.825-0.461-4.669-0.461c-6.283,0-9.626,2.997-15.909,2.997
			c-4.208,0-6.168-3.228-10.375-3.228c-3.862,0-4.669,5.072-8.532,5.072c-0.922,0-1.383-0.461-2.305-0.461
			c-3.113,0-2.939,4.092-4.15,6.917c-0.865,2.076-2.998,2.767-2.998,5.072c0,4.092-1.556,6.283-1.845,10.376
			c-0.231,3.458,1.095,6.11-1.153,8.761c-1.729,2.075-4.092,1.614-6.686,2.536c-2.594,0.922-3.689,2.998-6.456,2.998
			c-2.421,0-3.574-1.615-5.995-1.615c-1.787,0-2.478,1.557-4.15,2.075c-3.574,1.153-5.88,0.462-9.684,0.462
			c-5.476,0-8.935-1.153-13.373-4.382c-3.574,7.148-7.781,9.858-13.373,15.449c-1.787,1.787-5.072,1.787-5.072,4.381
			c0,2.018,1.498,3.92,3.516,3.92h5.649c3.688,0,2.132,5.476,3.746,8.762c-0.692,0.058-1.094,0.23-1.787,0.23
			c-0.921,0-1.442-0.576-2.363-0.691l-5.073,0.691l-4.15-1.152c-1.556,0.345-1.441,2.536-2.998,2.536
			c-2.652,0-3.804-2.075-6.455-2.075c-3.458,0-6.341,2.536-6.687,5.995c-1.441,0.174-2.305-0.115-3.689,0.231
			c-1.729,0.462-1.498,2.94-3.228,3.229c-2.305,0.404-3.631-0.289-5.995,0v4.092c0,1.672,0.692,2.652,0.692,4.323
			c0,3.113-3.228,4.035-6.225,4.957c-3.285,0.981-5.072,2.537-8.531,2.537c-1.96,0-2.652-1.845-4.612-1.845
			c-1.498,0-2.191,1.152-3.689,1.152c-0.576,0-0.922-0.461-1.383-0.692c2.536-6.167,9.453-7.608,9.453-14.295
			c0-2.536-3.92-0.461-6.456-0.461c-2.881,0-4.034-2.536-6.917-2.536c-2.536,0-3.228,2.421-5.534,3.458
			c-3.228,1.441-5.534,1.498-8.761,2.997c-3.977,1.845-6.282,3.055-10.145,5.303c-1.614,0.922-4.15,0.635-4.15,2.537
			c0,1.037,0.231,1.672,0.231,2.709c0,2.652-3.632,2.824-6.282,2.824h-13.95c-1.902,0-2.997,0.174-4.9,0.462l-4.612-0.922
			c-1.21,0.692-1.324,1.787-2.305,2.767c-1.556-1.153-2.652-1.845-4.612-1.845c-1.44,0-2.248,0.922-3.688,0.922
			c-5.418,0-11.528-2.422-11.528-7.839c-0.058-0.577,0.23-1.095,0.23-1.672c0-2.94,3.92-3.458,3.92-6.398
			c0-8.935-8.473-11.24-14.295-17.985c-1.441-1.672-4.381-1.672-4.381-3.92c0-2.132,1.557-2.997,2.075-5.072l-0.922-0.461h-5.015
			c-1.788,0-2.767-0.462-4.555-0.462c-2.881,0-4.381,1.153-7.262,1.153c-3.344,0-3.92-4.265-3.92-7.609
			c0-7.089,10.606-4.841,14.756-10.606c-1.729-1.555-4.322-0.288-5.533-2.305c-1.384-2.363-0.462-4.841-2.537-6.686
			c-1.728-1.499-3.631-0.922-5.995-0.922c-4.957,0-6.858,4.611-11.816,4.611h-7.552c-1.383,1.211-1.038,3.056-2.536,4.151
			c-2.017,1.442-4.092-0.231-6.456,0.692c-1.325,0.519-1.556,2.075-2.997,2.075c-4.496,0-4.668-5.36-6.917-9.222
			c-2.422-4.15-7.379-1.498-12.221-2.076c-2.536-0.289-3.17-2.536-5.303-3.919c-1.959-1.269-3.861-0.635-5.533-2.306
			c-1.095-1.095-0.462-2.536-1.384-3.688c-2.132-2.595-5.188-1.615-8.588-1.615h-5.879c-3.171,0-4.496-2.766-7.667-2.766
			c-0.922,0-1.441,0.403-2.305,0.692l-5.073-0.922c-1.901,2.132-3.343,3.919-6.224,3.919c-0.518,4.496,0.114,9.857-4.381,10.606
			l-6.687-1.152c-3.17,0.23-4.784,1.383-7.955,1.383c-9.108,0-12.451-8.012-21.559-9.223c0.635-5.245,2.479-7.897,3.92-12.911
			c0.289-1.153,1.614-1.557,1.614-2.767c0-0.404-0.403-0.519-0.461-0.922c-3.344,0.231-4.958,2.076-8.301,2.076
			c-0.922,0-1.384-0.462-2.305-0.462c-1.326,0-2.075,0.346-3.229,0.922l0.462,1.845v4.554c0,3.343,5.072,3.632,5.072,6.975
			c0,6.744-1.729,10.491-4.15,16.831c0,3.055-1.153,5.016-1.153,8.07c0,3.862,1.845,5.822,1.845,9.684
			c2.709,0.404,4.957-0.692,6.917,1.153c3.229,2.998,1.672,6.917,2.767,11.298c1.268,5.188,2.536,8.07,2.536,13.373
			c0,1.845-2.536,1.557-3.92,2.767c-2.651,2.305-4.092,4.841-7.608,4.841c-0.634,4.093-2.997,6.053-2.997,10.145
			c0,2.463,0.379,3.936,0.622,6.217l-1.775-0.222c-4.899,1.614-8.762,2.133-11.528,6.456c-1.729,2.709-1.441,4.957-3.229,7.608
			c-2.017,2.94-2.421,5.534-5.303,7.609c-3.804,2.767-7.378,4.957-7.378,9.684c0,1.095,0.691,1.672,0.691,2.767
			c0,1.729-2.132,1.729-3.458,2.767c-1.21,0.98-1.729,2.075-2.998,2.997l-4.15-0.692c-6.052,0.75-7.32,8.531-13.373,8.07
			c-2.882-0.231-3.63,2.882-6.225,4.15c-1.268,0.635-2.305-0.057-3.689,0.231c-2.536,0.519-3.055,2.825-4.381,5.072
			c-3.343-2.478-6.398-2.305-10.606-2.305c-2.939,0-4.323,1.614-7.148,2.305c-0.864-2.074-1.614-3.284-1.614-5.533
			c0-2.825-0.518-6.918,2.306-6.918c1.095,0,1.672,0.462,2.766,0.462c2.249,0,3.113-2.076,4.381-3.92
			c0.981-1.441,2.998-1.671,2.998-3.458c0-1.556-0.288-2.594-1.383-3.689c-0.749-1.901-3.459-2.305-3.459-4.381
			c0-1.268,1.384-1.498,2.075-2.536c3.055-4.496,2.882-8.07,5.303-12.911c1.498-3.055,4.151-4.381,4.151-7.839
			c0-2.882-0.577-6.456-3.459-6.456c-2.363,0-3.631,1.383-5.995,1.383c-2.708,0-3.746-2.767-6.456-2.767
			c-6.571,0-6.571,10.606-13.142,10.606c-3.343,0-4.726-2.997-8.07-2.997c-5.072,0-3.631,7.436-7.839,10.375
			c-4.15-6.225-5.072-10.952-5.072-18.388v-4.15c0-2.364-1.556-4.669-3.92-4.669l-0.23-1.384c1.268-2.132,3.458-1.614,5.764-2.536
			c2.998-1.153,3.458-4.381,3.458-7.608c0-2.882-1.786-4.208-2.767-6.917c-0.864-2.363-0.23-4.151-1.152-6.456
			c-1.441,0.231-2.248,0.922-3.689,0.922c-1.614,0-2.075-1.498-3.458-2.306c-5.073-3.055-7.378-7.204-7.839-13.142h-1.556
			c-3.171,0-4.785,2.075-7.955,2.075h-4.727c-4.381,0-3.862-5.821-5.361-9.915c-1.787-4.899-7.609-5.937-7.609-11.182
			c0-2.939,1.845-4.496,1.845-7.436c0-0.403-0.231-0.577-0.231-0.98c-3.055,0.462-3.17,4.842-6.224,4.842
			c-1.095,0-1.672-0.462-2.768-0.462c-3.343,0-4.957,2.306-8.3,2.306c-2.709,0-1.729-3.92-3.458-5.995
			c-1.153-1.442-2.939-0.75-4.842-0.923c-1.383-0.114-1.845-1.614-3.228-1.614c-0.749,0-1.384,0.634-1.384,1.384v2.708
			c0,1.96-0.23,3.055-0.921,4.9c-4.092-0.979-5.707-3.401-8.992-5.995c-3.458-2.767-6.628-2.306-11.068-2.998
			c0.691-2.825,3.229-3.919,3.229-6.859v-8.416c0-1.153,0.461-1.786,0.461-2.939c0-2.133-3.401-0.807-5.072-2.075
			c-3.401-2.594-6.283-3.458-10.606-3.458c-4.554,0-6.052,4.612-7.839,8.761c-2.478,5.706-3.862,9.05-6.225,14.756
			c-1.038,2.594-0.205,5.439-2.453,7.053c0.155-0.093,0.192-0.172,0.372-0.159c-0.177,0-2.388,2.526-3.057,2.971
			c-8.161,5.419-16.69-0.094-25.569-0.094l-7.874,0.836c-0.62,2.508-4.488,5.434-6.485,6.963c-2.954,2.259-6.08,3.262-9.449,4.549
			c-2.163,0.827-4.493,1.006-6.581,1.919c1.211,4.842,5.875,5.303,8.296,9.625c1.845,3.286,1.729,8.07,5.534,8.07
			c1.557,0,2.191-1.555,2.767-2.997c5.534,4.15,9.396,7.148,16.37,7.148c0.059,0.576,0.231,0.865,0.231,1.442
			c0,3.284-1.383,5.072-1.383,8.357c0,10.491,5.072,15.909,5.072,26.4c0,6.975-11.759,3.055-15.448,8.992
			c-4.091,6.629-5.244,11.067-9.914,17.292c-3.632,4.842-5.765,7.609-9.454,12.451c-1.671,2.191-1.094,4.439-2.767,6.687
			c-2.78,3.739-4.849,6.105-6.171,10.165h2328.453c0.226-1.778,0.765-3.277,2.54-3.71c-0.404-5.303-2.71-7.955-3.92-13.142
			c-1.383-5.879-1.844-9.338-3.92-14.987c-0.806-2.19-3.977-0.634-5.533-2.305c-1.903-2.075-2.536-3.689-3.458-6.456
			c3.977-1.325,6.917-3.92,6.917-8.07c0-2.421-1.614-3.574-1.614-5.995c0-1.094,1.844-0.98,1.844-2.075
			c0-4.208-3.458-5.995-3.458-10.202c0-0.98,0.114-1.498,0.23-2.478c5.188-0.634,8.185-1.153,13.373-0.058v1.672l-1.152,4.841
			c0.46,1.845,1.094,3.92,2.997,3.92c3.977,0,5.475-3.229,8.07-6.225c2.998-3.458,6.456-4.381,11.067-4.381
			c2.537,0,3.92,1.383,6.456,1.383c3.054,0,3.92-2.882,6.225-4.841c2.998-2.536,5.246-3.343,8.531-5.534
			c2.363-1.556,2.537-3.805,4.842-5.534c2.075-1.556,4.784-0.288,6.456-2.305c3.746-4.438,5.764-8.012,5.764-13.835
			c0-4.841-3.458-7.148-3.458-11.989c0-2.132,1.094-4.381,3.228-4.381c1.326,0,1.672,1.614,2.998,1.614
			c3.633,0,4.496-3.458,6.917-6.225c0.866-1.038,2.479-0.634,2.998-1.845c1.729-3.746,0.461-6.628,2.305-10.375l-0.231-0.922
			c-1.152-0.172-1.728-0.403-2.766-0.922c-1.094-1.901-2.42-2.939-3.458-4.842c-0.865-1.614-1.095-3.919-2.998-3.919
			c-1.153,0-1.614,0.922-2.767,0.922c-1.614,0-1.844-1.729-3.228-2.536c0.749-1.556,2.305-1.96,2.305-3.632v-4.957
			c0-2.94-1.845-4.496-1.845-7.436c0-1.672,0.923-2.536,0.923-4.208c0-0.635-0.173-1.038-0.23-1.672h-3.229
			c0-4.9-4.093-8.359-8.992-8.763l-17.754,3.92c-9.799-0.749-11.874-12.912-21.673-12.912c-1.729,0-1.442,2.364-2.075,3.92
			c-3.805-0.634-6.917-0.288-9.222-3.228c-1.038-1.325-0.404-3.285-1.845-4.151c-5.822-3.688-10.606-2.421-16.831-5.533
			c2.767-5.13,8.3-6.802,8.3-12.682c0-1.556-0.461-2.478,0-3.92c3.977,0.75,1.556,8.532,5.534,8.532
			c2.708,0,3.574-2.825,4.612-5.303c1.901-4.381,4.899-6.514,9.453-7.839c1.384-0.403,2.421,0.403,3.689-0.231
			c1.729-0.865,1.786-3.055,3.689-3.458c3.458-0.693,6.686-2.652,6.686-6.225c0-2.824-3.228-3.632-3.228-6.456
			c0-1.672,1.96-1.787,3.458-2.536c-0.058-0.692-0.231-1.326-0.231-2.018c0-0.403,0.231-0.577,0.231-0.98
			c6.397,0,9.511-4.15,15.909-4.15c0.979,0,1.325,0.922,2.305,0.922c0.923,0,0.923-1.614,1.845-1.614
			c2.075,0,2.998,1.614,5.073,1.614c1.614,0,2.708-0.346,4.15-0.922c2.421,5.821,7.32,8.992,13.66,8.992
			c0.691,0,1.588-0.116,2.28-0.232c3.936-0.311,12.021-1.459,13.979,2.135c0.927,1.702,1.323,7.212,1.575,9.376
			c0.386,3.296,2.783,10.951,6.021,12.626c3.996,2.068,13.46,5.98,17.88,3.528l6.303-0.381c1.268-2.248,4.012-1.344,5.626-3.304
			c1.614-1.96-0.98-5.13,1.153-6.456c3.285-2.017,6.628-2.248,8.07-5.764c1.901,3.862,1.728,6.571,3.228,10.606
			c0.518,1.442,0.749,3.228,2.305,3.228c2.132,0,3.229-0.922,5.361-0.922h9.338c11.528,0,17.984-2.075,29.341-3.919
			c10.087-1.672,15.851-2.076,25.593-5.303c-1.384-2.133-2.075-3.747-4.151-5.303c-0.923-1.269-1.845-2.076-1.845-3.632v-5.649
			c0-8.3-0.691-13.2-2.997-21.155c-0.807-2.939-4.381-3.574-4.381-6.686c0-4.323,7.377-3.978,7.377-8.301
			c0-1.21-1.499-1.269-2.305-2.076c-2.767-2.767-5.534-4.726-5.534-8.703v-3.748c0-2.939-2.767-4.092-5.303-5.533
			c-2.767-1.615-4.438-2.478-7.377-3.689c3.112-4.15,7.436-3.574,12.45-5.073c4.958-1.498,7.263-3.919,12.221-5.533l1.844,0.922
			c2.074-4.151,4.381-6.456,4.381-11.068c0-2.075-2.767-2.536-2.767-4.612c0-4.784,5.303-6.282,5.303-11.067
			c0-2.132-2.709-2.248-4.381-3.458l6.456-12.451c-0.866-2.076-2.767-2.306-4.612-3.689l0.231-0.922
			c5.648-2.305,6.743-6.744,11.527-10.837c3.344-2.821,5.98-3.802,8.977-6.493v-1.622c-2.213-2.162-3.29-4.543-6.441-5.949
			c-4.265-1.901-8.011-1.614-10.605-5.534c-3.458,2.595-5.073,6.225-9.454,6.225c-1.153,0-1.038-1.555-1.844-2.305
			c-1.094-1.038-3.458-0.518-3.458-2.075c0-1.729,1.326-2.477,2.536-3.689l2.306-4.841l-4.612-4.381
			c0.749-2.363,3.228-3.054,3.228-5.534c0-2.305-2.074-3.228-2.074-5.534c0-2.766,1.268-4.611,3.458-6.224
			c1.211-0.865,2.997-1.211,2.997-2.768c0-1.728-1.499-2.305-2.536-3.688c-2.017-2.709-2.824-4.496-4.612-7.378
			c-2.074-3.401-1.959-6.11-4.15-9.453c-0.749-1.153-1.094-2.767-2.497-3.211c-1.966-0.378-3.598-0.248-5.977-0.248
			c-3.929,0-6.204-2.68-8.236-5.754H1164.263C1163.679,490.07,1162.767,490.462,1161.081,490.061z"/>
	</g>
</g>
</svg>
