<?xml version="1.0" encoding="utf-8"?>

<!DOCTYPE svg PUBLIC "-//W3C//DTD SVG 1.1//EN" "http://www.w3.org/Graphics/SVG/1.1/DTD/svg11.dtd">
<svg version="1.1" id="Layer_1" xmlns="http://www.w3.org/2000/svg" xmlns:xlink="http://www.w3.org/1999/xlink" x="0px" y="0px"
	 viewBox="0 0 2057.179 1681.963" enable-background="new 0 0 2057.179 1681.963" xml:space="preserve">
<g>
	<path fill="none" d="M2005.486,973.458v14.306c0.175-0.383,0.335-0.792,0.474-1.243
		C2007.476,981.589,2007.509,977.215,2005.486,973.458z"/>
	<path fill="none" d="M50.124,377.172c0.247,0.32,0.498,0.637,0.747,0.954v-1.373C50.621,376.893,50.377,377.034,50.124,377.172z"/>
	<path fill="#ED2939" d="M2001.132,968.511c-3.223-2.467-6.032-4.327-9.573-6.336c-2.83-1.606-4.093-8.069-6.493-10.923
		c-1.639-2.255-8.576-6.453-7.076-9.671c0.541-1.161,3.623-1.86,4.745-2.836c2.796-2.427-0.148-6.127,2.914-8.921
		c4.474-4.085,5.507-7.159,4.078-13.007c-0.715-2.926-1.602-4.375,0.417-6.92c2.959-3.728,2.401-5.108,2.996-9.506
		c-0.598-4.305-0.06-8.8-0.582-13.007c-0.331-2.665-4.589-1.73-6.577-2.418c-2.733-0.947-3.09-2.954-5.327-4.086
		c-1.835-0.929-3.861-1.221-4.495-3.502c-0.466-1.675,0.826-2.917,0.416-4.67c-0.989-4.222-1.75-3.397-0.083-8.004
		c0.866-2.396,7.51-7.13,2.164-7.921c-2.539-0.376-6.404,0.89-8.574-0.5c-2.931-1.876-4.332-4.726-7.576-6.253
		c-3.191-5.801-3.259,0.257-7.658,0.417c-5.357,0.195-4.321-4.949-8.824-4.086c-3.088,0.592-6.428-1.286-7.908,1.751
		c-2.693,5.52-4.22-5.934-10.739,0c-1.648,1.502-9.195,6.843-11.156,4.503c-2.098-2.505-0.851-5.803-1.915-8.671
		c-0.544-1.468-1.867-3.574-2.913-4.753c-2.169-2.441-0.001-5.502-4.079-6.003c-4.708-0.578-8.348-2.084-7.492-7.838
		c0.845-0.911,1.931-1.485,2.498-2.585c0.516-0.996,0.798-1.821-0.417-2.501c-1.59-0.89-3.364-1.305-5.077-1.918
		c-1.015-0.762-1.986-1.423-2.498-2.585c-0.135-0.306,0.443-0.874,0.5-1.168c0.555-2.836-1.998-5.107-1.998-7.837
		c-0.863-6.909,3.218-8.134,8.407-10.422c3.472-1.532,5.468-2.574,4.995-6.754c-0.655-5.795,7.642-4.033,9.823-8.087
		c1.055-1.962-0.679-5.699,2.913-5.586c3.464,0.108,4.347,1.635,7.076-2.001c0.429-1.866,1.687-5.324,2.83-6.837
		c2.39-3.163,6.745-4.629,8.491-8.421c1.08-2.344,2.263-5.725,2.164-8.338c-0.156-4.146-7.734-1.453-10.073-1.084
		c-2.126,0.337-5.25,1.337-7.326,0.584c-3.205-1.163-5.225-3.449-7.992-5.253c-3.627,0.214-5.507-3.275-9.989-0.5
		c-2.757,1.708-6.031,5.25-9.657,4.753c-3.877-0.533,1.443-4.659,1.332-6.253c-0.197-2.816-10.979-5.163-2.331-8.504
		c7.634-2.951-4.383-9.639-5.91-13.758c-1.186-3.198,0.116-6.235-3.164-8.505c-4.796-3.317-6.962-3.938-8.158-10.672
		c-1.74-3.137-3.37-7.219-5.578-10.006c-3.638-4.59-3.842-11.771-9.823-14.758c-6.285-3.138-17.966-4.336-24.891-4.336
		c-2.33-1.509-5.719-2.754-8.491-3.002c-2.769-0.248-3.914,1.085-5.743-1.668c-2.062-3.101,1.319-9.566,2.663-12.59
		c1.349-3.035-3.787-3.944-5.41-5.086c-1.871-1.316-3.242-3.221-5.245-4.252c-1.448,2.016-9.549,1.755-12.321,2.084
		c-2.907,0.344-6.829-0.794-9.24-2.418c-2.124-1.43-3.509-3.711-5.827-5.169c-3.35-2.107-4.8,1.283-8.157,1.501
		c-4.446,0.288-7.518,3.507-11.572,4.586c-4.743,0.823-16.874,5.193-18.98-1.084c-2.032-6.055-1.099-12.598-8.824-7.42
		c-2.831,1.897-8.373,4.864-11.572,5.919c-4.394,1.449-0.709-9.502-8.324-5.503c-3.806,1.998-6.342,3.128-10.49,4.419
		c-5.135,0-9.021-9.323-10.656-8.504c-6.849,3.428-4.631-9.192-7.575-9.756c-3.277-0.629-6.735,0.909-8.99,3.169
		c-1.746,1.749-9.827,6.877-9.574,8.671c0.349,2.474,0.859,5.954-1.915,7.087c-3.538,1.447-5.102-3.669-7.909-3.669
		c-4.657,0-7.69,4.882-11.988,5.836l-5.451-1.83l1.383-5.619l3.387-4.992l2.18-4.323l0.08-4.664l-2.92-5.165l-0.394-3.254
		l2.942-12.297l-5.869-3.713c-2.73-1.289-4.063-2.245-7.242-2.669c-2.265-0.302-4.602-1.145-6.66-2.001
		c-4.151-1.725-4.811-8.71-5.327-12.59c-0.467-3.516-3.818-4.695-3.996-8.005c-0.912-6.125-0.266-20.065,5.328-23.679
		c7.203-4.651,13.155-7.535,17.814-15.091c3.509-5.689,7.071-3.276,6.826-11.09c-0.28-8.932,7.2-0.393,11.016-1.076l5.754-18.5
		l5.808-7.235l3.349-5.642l0.692-7.154l-9.387-11.504c0.739-6.454,1.786-7.877,6.909-11.423c3.368-2.331,6.522-4.986,7.908-9.088
		c2.784-8.238-0.394-16.646,5.91-23.93c1.967-2.272-7.373-7.259-6.077-12.341c1.567-3.004,3.796-6.75,4.662-10.005
		c0.582-2.186-0.043-4.365,0.666-6.503c1.382-4.173,12.238,7.583,12.238-2.418c0-4.971-1.817-6.623,2.414-10.589
		c5.352-5.015-6.347-10.285-4.329-13.008c0.381-0.514,5.356-1.226,6.743-2.251c5.701-4.212,16.853,1.141,11.571-9.422
		c-6.341-2.779-16.109-1.803-9.407-11.34c3.741-5.325,10.021-8.075,15.817-10.339c4.825-1.885,9.255-2.352,5.078-7.337
		c-4.489-5.359-8.782-8.424-11.988-15.008c-1.41-2.894-2.533-7.43-5.661-1.168c-3.045,6.098-4.835,0.417-10.323,3.836
		c-1.785,1.343-6.706,7.465-9.157,5.92c-2.299-1.448-0.965-6.951-1.748-9.505c-0.818-2.674-3.856-0.901-4.912-2.585
		c-1.941-3.097,2.049-6.083,1.915-8.588c-0.234-4.367-8.612-5.103-11.572-6.42c-9.282-4.131-12.165-5.2-21.145,0.75
		c-4.711,3.121-9.6-0.145-14.069-2.168c-5.346-2.421-10.896,2.018-12.654-5.919c-0.874-3.944-1.73-3.212-4.578-5.419l-43.705-17.426
		l-1.082-10.422c-2.134-6.096,1.581-15.294,1.581-21.762c0-10.541-4.189-7.654-10.906-12.841c-4.713-3.64-5.107-8.397-8.74-12.173
		c-2.622-2.726-13.892-5.586-17.732-5.586c-4.509,5.648-5.312,10.085-12.487,14.008c-8.172,4.469-11.332,2.741-17.482,11.089
		c-5.055,6.859-6.37,1.102-12.404,2.251c-7.613-0.722-15.03-5.316-22.643-6.836c-9.517-1.901-3.672,4.292-9.99,8.087
		c-10.34,6.213-28.389-0.791-39.542,0.084c-2.918,0.229-6.414,2.842-8.824,2.751c-2.595-0.098-5.588-4.68-7.824-6.086
		c-1.106-2.925,5.006-23.246,5.827-27.765c0-4.012-1.047-10.875-5.578-12.006c-4.214-1.051-13.824-6-17.815-4.503
		c-4.937,1.851-10.313,6.084-15.4,8.421c-4.743,2.181-12.781,1.747-14.902-3.836c-2.161-5.688-0.999-13.315-0.999-19.344
		c0-5.229,1.88-7.762-3.246-10.255c-2.911-1.417-2.76-4.009-4.995-6.086l-0.518-0.596v1296.549
		c3.102,10.41,6.507,25.062,14.753,19.346c13.717-9.508,6.486,6.06,10.572,12.84c3.027,5.022,6.169,2.053,10.323,1.918
		c4.459-0.144,2.346,2.718,7.326-0.083c6.004-3.378,6.938,7.202,12.071,3.585c5.259-3.708,6.788-2.43,9.573,1.918
		c3.828,5.979,9.83-14.655,15.068-5.003c3.618,6.665,8.11,10.565,14.235,15.175c4.724,1.248,9.822,9.676,13.32,13.174
		c2.513,2.512-2.892,6.996-4.412,9.421c-0.981,1.564-0.325,2.681-2.081,4.17c-7.789,6.607-2.663,9.698-2.663,18.259
		c0,2.057,1.668,5.146,3.912,3.086c4.772-4.382,10.75-0.042,12.404-6.837c0.702-2.88,2.654-9.543,6.909-6.337
		c2.565,1.934,3.258,4.508,6.909,5.253c5.056,1.03,5.991,3.913,9.824,5.336c1.706,0.634,4.095-0.249,5.244,1.668
		c1.534,2.555,1.182,3.484,4.579,4.336c5.234,1.745,2.989,3.493,5.411,7.003c1.797,2.602,5.91,2.03,5.91,6.42
		c0,4.471,0.555,13.413,3.08,17.176c1.41,2.099,7.608,0.008,8.074,1.834c1.222,4.787-7.252,9.352-2.247,13.591
		c5.202,4.405,10.952,7.833,9.49,15.592c-2.43,2.14-4.219,5.04-6.909,7.337c-6.844,5.846,6.327,4.663,6.327,10.755
		c0,3.192,2.877,9.35,7.075,7.004c3.934-2.197-0.406-6.908,5.578-8.421c2.315-0.585,4.702,1.334,6.992,1.334
		c4.327,0,9.064-2.539,12.737-4.585c5.217-2.909,7.691-8.358,12.654-11.59c3.131-1.223,7.736-1.957,10.989-0.834
		c3.195,1.104,10.999,6.825,12.987,9.589c0.956,1.328,2.339,6.775,3.163,7.003c1.613,0.446,5.191-5.458,5.91-6.67
		c3.056-5.147-1.058-6.377-2.747-10.756c-0.423-1.097,3.325-2.859,4.163-3.502c2.207-1.693,3.859-4.171,4.744-6.837
		c2.676-1.082,4.442-3.735,6.91-5.253c2.411-1.481,5.012-2.375,7.908-2.502l3.496,0.251c4.443,2.845,10.063,2.416,14.069,5.002
		c3.311,2.138,3.989,3.449,8.158,4.585c4.832,1.318,5.172-2.074,8.657-3.418c3.306-1.276,8.335,8.846,11.738,1.168
		c2.165-4.885-1.782-7.294,3.663-10.339c2.825-1.578,3.092-5.618,7.658-3.336c4.284,2.141,3.922,7.49,9.407,7.921
		c3.857,0.304,9.201-0.454,11.489,3.752c1.209-0.753,3.461-3.835,4.662-3.919c4.978-0.349,5.587,0.219,8.325-4.419
		c1.079-1.828,2.286-4.993,4.162-6.087c3.474-2.024,10.206-4.998,10.49-9.421c0.193-3.015,1.051-4.968,1.498-7.754
		c0.681-4.237-9.99,4.053-9.99-3.92c0-1.854-0.837-5.27,0.499-6.336c4.019-3.212,6.903-3.097,10.406-8.004
		c1.694-2.86,0.712-5.472,3.08-8.254c2.015-2.369,5.761-2.769,7.492-4.836c2.543-3.036,2.11-7.781,2.914-11.339
		c0.434-1.921,1.336-3.682,1.665-5.67c0.412-2.494,0.352-4.921,0.666-7.42c1.506-10.59-9.939-9.987-17.149-14.425
		c-3.087-1.9-4.8-3.914-3.247-7.671c1.271-3.077,0.889-5.504,1.832-8.337c1.206-3.626,11.719-5.572,9.573-10.173
		c-2.37-5.082-7.426-16.76-13.903-14.258c-4.796,1.854-6.757,4.062-11.156,1.335c-3.281-2.034-5.986,3.21-6.492-4.503
		c0-5.395,1.541-3.583,3.579-7.671c2.276-4.567-5.965-5.59-7.242-10.589c-1.971-7.708-7-16.007-10.823-22.846
		c-0.793-1.418-1.748-2.251-1.748-4.086c0-1.494,0.707-7.12-2.497-6.337c-1.38,0.338-2.029,1.501-3.829,1.501
		c-1.981,0-4.247-0.369-6.16-0.084c-4.703,2.648-8.46,2.357-6.743-4.252c0.823-3.167-0.332-7.665-1.498-10.589
		c-1.651-4.137-1.461-10.74-1.665-15.258c-0.092-2.029-1.719-6.117-0.167-7.671c3.892-3.902,2.296-2.484,1.249-8.004
		c1.216-4.312,4.175-2.236,3.33-7.337c-0.273-1.651-1.341-6.651,1.165-6.92c5.504-0.593,9.94,2.818,10.157-5.336
		c0.258-9.728-18.843-9.642-22.144-17.76c-0.701-1.723,4.25-4.572,5.411-5.419c1.854-1.351,2.166-2.783,3.33-4.585
		c1.043-1.617,5.172-0.961,5.41-3.586c0.286-3.154-0.145-6.128,0.333-9.505c0.971-4.375,5.372-3.717,2.747-8.171
		c-2.38-4.035-0.975-5.823,1.915-8.671c1.395-1.374,2.246-5.86,4.162-8.171c6.548-7.902,6.968-0.564,13.07-1.501
		c3.277-0.503-0.659-5.938,4.495-6.67c2.933-0.417,13.097-8.856,12.321-12.173c-0.342-1.459-5.131-3.017-6.409-3.919
		c-2.954-2.086-3.88-8.842-3.413-12.09c-0.713-9.455,9.371-7.56,14.485-12.674c1.466-1.466,4.173-3.77,5.078-5.586
		c0.699-1.401-1.79-3.545-1.332-5.336c0.576-2.247,8.321-4.971,4.828-8.671c-1.545-1.636-5.429-4.571-5.328-6.92
		c0.061-1.418,5.315-13.049,6.41-13.675c5.53-3.165,10.222,0.429,9.656-8.754c-0.222-2.837-1.877-8.151,0.999-9.589
		c3.45-1.723,2.271-4.53,1.831-7.504c-1.404-9.499,25.77-14.848,31.052-19.844c3.733-3.532,1.915-8.92,1.915-13.257
		c0-2.749,4.55-3.707,4.661-6.17c0.122-2.716-2.861-4.052-1.998-8.171c2.327-4.943,2.516-8.405,8.991-7.253
		c7.734,1.376,14.094-4.686,21.311-4.919c3.299-0.107,2.497,2.689,2.497,5.336c0,3.459,0.184,8.629,3.413,10.672l4.578,1.835
		c3.686,1.476,6.828,5.122,11.239,3.419c2.616-1.011,5.213-0.384,5.91-3.253c1.525-6.266,2.163-13.361,9.49-8.921
		c3.119,1.89,8.046,2.03,10.739,4.585c2.5,2.372-1.798,4.381-0.166,6.587c3.858,5.21,3.151,4.066-0.333,9.505
		c-3.526,5.507,0.14,6.755,4.245,9.839l5.504,1.663l-0.079-0.292c-0.119-0.544-0.052-1.027,0.398-1.371
		c3.596-2.752,14.247-10.935,6.826-12.841c-2.474-0.635-4.693-0.696-6.493-3.002c-2.869-3.675,8.372-4.12,5.328-7.17
		c-2.437-2.441-4.592-5.641-2.664-9.172c1.667-3.052,3.855-2.147,5.327-4.169c1.882,0.493,1.723,0.546,2.502,2.085
		c1.179,2.334,2.202-0.63,3.413-1.585c2.889-2.276,7.413,0.151,10.573-1.251c3.97-1.761,2.14-3.797,0.582-6.503
		c-2.346-4.074-0.748-6.694-0.416-10.756c0.412-5.032-1.785-6.394-3.746-10.756l-4.761-5.534c0.934-4.724,1.11-8.454,4.675-12.726
		c4.777-5.722,12.237-9.02,16.237-15.069c5.717-1.44,10.4-2.576,15.401-5.943c7.157-4.816,14.534,0.285,21.145-6.336
		c1.681-1.683,5.155-3.299,4.328-6.003c-1.18-3.863-3.386-3.93-2.164-8.838l0.224-4.267c1.502-0.776,2.864-1.731,3.935-2.903
		c1.833-2.007-1.452-6.34,1.165-7.504c2.308-1.026,5.379,1.321,5.827-1.835c0.239-1.684-1.301-5.421-1.332-7.17
		c2.397-1.228,4.022-1.251,6.581-1.251c3.321,0,6.188-4.872,7.825-1c1.957,4.631,4.688,3.34,8.325,6.003
		c1.118,0.819,4.267,6.646,5.66,5.253c2.494-2.493,1.689-4.897,6.16-6.753c4.892-2.032,10.6-1.142,13.013-6.428v-14.306
		C2004.522,971.667,2003.097,970.014,2001.132,968.511z"/>
	<path fill="#FAE042" d="M1265.705,92.229c-0.908-0.731-0.501-1.455,0.333-2.022c0.446-0.304,0.089-0.692,0.728-1.022
		c0.589-0.304,0.277-1.289,0.062-1.772c-0.243-0.549-1.081-0.286-1.498-0.187c0,0.958-2.427,1.055-2.497,2.376
		c-0.031,0.587-0.746,1.778-1.395,1.752c-1.387-0.058-0.251-2.558-0.478-3.065l-0.645-0.855v0c-0.356,0.102-0.621,0.188-0.999,0.188
		c0-0.391,0.688-0.617,0.437-1.188c-0.089-0.201-1.723-0.774-2.04-0.626c-0.368,0.172,0.52,2.218,0.52,2.898
		c0,0.928-0.894,1.638-0.77,2.606c0.097,0.754,0.396,2.075-0.062,2.71c-0.382,0.528-0.984,0.282-1.478,0.48
		c-0.741,0.298-0.994,0.816,0.042,0.792c0.974-0.022,1.62,0.796,2.456,1.001c0.796,0.194,1.616,0.243,2.31,0.687
		c0.486,0.312,0.568,1.249,0.936,1.71c0.65,0.817,2.391-0.065,3.476,0.667c0.789,0.531,2.045-0.597,2.372-1.292
		c0.702-1.49-0.656-1.381-0.999-2.46c-0.361-1.132,1.329-0.194,1.582-0.73c0.248-0.528-0.776-0.627-0.167-1.73
		C1269.004,91.203,1266.863,93.161,1265.705,92.229z"/>
	<path fill="#FAE042" d="M1332.156,130.888l15.068-27.514c0-7.202,0.184-11.126-3.163-17.76l-7.825-15.508
		c-2.166-4.293-7.21-4.339-10.989-6.753c-3.792-2.423-10.779-10.546-14.236-7.337c-2.192,2.033-9.681,13.716-8.824,16.592
		c1.121,3.756,0.999,5.638,0.832,9.338c-0.125,2.76-4.651,8.4-7.159,9.172c-4.461,4.046-27.57,30.226-31.468,29.266
		c-1.344-0.331-1.745,5.253-3.579,7.087c-5.219,5.219-5.357-0.978-7.242-4.086c-1.056-1.742-4.438-2.22-4.828-4.67
		c-0.805-5.053-7.711-8.656-13.07-7.671c-4.048,0.745-5.944,7.219-9.656,5.419l-10.49-5.086c-2.066-1.001-4.021,2.288-6.493,2.752
		c-6.493,1.219-14.272,5.315-20.895,2.001c-2.286-1.144-10.191-13.641-8.74-15.092c4.656-4.656,10.808,1.85,15.234,0.083
		c0.845-0.338,5.812,1.739,6.66,2.418c7.297,5.832,14.397,10.57,9.407-1.667c-2.297-5.629-3.386-7.882-2.664-14.258
		c0.564-4.989,5.917-9.858,4.995-13.091c0-3.857,5.108-12.231,2.247-15.092c-3.925-3.925-10.429,1.996-11.738-6.337
		c-0.687-4.375-1.96-5.201-5.91-6.836c-3.693-1.528-11.133-1.112-13.154-4.336c-1.979-3.155-14.19,2.373-15.4,5.419
		c-2.175,5.479,0.175,4.71-5.911,7.587c-8.846,3.986-8.724,13.396-18.064,16.509c-5.948,1.982-0.718,12.767-11.655,15.258
		c-7.372,1.68-5.87,2.095-5.661,9.672c0.333,12.086,0.477,5.953-9.49,7.754c-6.064,1.096-1.785,3.241-8.408-0.083
		c-4.089-2.053-10.618-1.436-15.234-3.252c-7.97-3.135-12.006-1.882-19.98-0.667c-7.29,4.048-16.067,13.026-16.067,0.083
		c0-8.552-1.453-16.155,2.747-23.763c1.451-2.629,5.669-8.944,4.912-12.007c-5.669-1.612-3.909-5.757-11.655-4.919l-23.143,2.502
		c-5.487,0.593-10.434,4.452-15.234,6.92l-21.894,11.256c-2.687,1.381-10.047,3.479-11.738,5.169c0,2.443,7.392,4.058,8.407,7.504
		c0.789,2.676-3.456,13.321-4.828,15.592c-4.132,10.898,30.703,38.631,18.648,44.191l-17.899,8.255
		c-3.835,1.769-22.411-0.318-24.391-4.003c-1.239-2.304-3.491-11.115-4.578-12.09c-0.89-0.799-14.124,0.357-16.65,0.083
		l-30.333,0.593c0.276,2.064,0.342,4.085,0.199,5.911c1.554,7.787,2.373,7.181,7.908,11.339c2.083,1.564,8.791,5.38,7.491,8.338
		c-0.974,2.216,1.117,3.824,2.664,5.503c7.203,7.819-3.493,21.237,8.075,29.266c6.598,4.58,12.1,6.002,16.649,13.258l1.083,4.919
		l3.912,2.752l3.579-4.503l-9.407-16.758l-6.659-13.591l-7.076-17.76l-2.414-7.17l-2.248-10.256h2.997l3.496,9.922L945.389,183
		l16.9,1.084l0.333,2.919l-15.152-0.167l2.414,7.17l14.902,28.099l18.398,0.75l-0.084,2.418h-16.483l8.741,8.171l-1.415,0.751
		l-9.574-7.337l-2.914,3.752l7.326,7.837l12.903-0.333l0.416,2.168l-11.738,0.167l-0.083,2.585l10.739,0.166l0.25,2.002
		l-10.906-0.167l-0.083,3.169l17.232,0.75l0.583,1.501l-19.896-0.25l-1.249-10.422l-6.742-8.338l-2.331,6.753l-2.331-1l1.748-9.089
		c-0.777-0.713-1.564-1.462-2.164-2.334c-0.345-0.5-0.849-1.001-1.499-1.001c-1.654,0-2.195,1.12-2.747,2.502
		c-0.335,0.84-0.657,1.266-1.248,2.001c-1.973,3.945-8.173,7.139-4.995,11.089c2.005,2.49,7.843,2.883,10.739,4.253
		c7.867,3.721,12.295,13.026,22.56,10.589c2.616-0.621,12.654-0.234,12.654,3.586c-4.306,0-9.31-0.834-13.986-0.834
		c-4.852,0-10.643-1.341-14.735-3.836c-3.392-2.067-5.736-4.961-9.49-6.336c-5.907-2.162-11.549-3.817-13.57-10.256l-17.815,0.334
		l-2.664,2.501l-2.33-1l1.831-4.42l-3.579-1.417l-7.576,10.839l-2.33-1.334l5.993-12.007l-8.074-4.503l-8.658,12.424l-1.581-1.918
		l20.978-30.183l2.747,2.251l-11.905,14.508l10.073,6.336l3.662-3.669l2.747,2.001l-2.58,3.419l6.992,3.336
		c2.655,0.46,4.844,0.166,7.409,0.166c2.035,0,3.998,0.572,5.993,0.667c5.141,0.245,5.136-6.408,6.66-10.005
		c11.524-10.261-4.972-12.468-12.155-16.592c-10.504-6.031-8.71-16.729-10.323-27.264c-0.436-2.849-10.927-13.532-13.653-15.092
		l-35.796,45.109l-41.79,29.432c-4.548,1.782-10.541,6.492-14.818,9.339c-5.877,3.911-5.451,0.303-10.073,0.083
		c-2.64-0.126-3.199,3.296-6.327,1.001c-3.243-2.38-6.081-0.478-8.741,2.084c-3.437,3.312-7.63,4.541-10.573,8.672
		c-4.514,6.336-9.921,5.911-13.653,12.673c-3.242,5.876-6.621,2.284-10.24-0.083c-7.624-4.989-3.234-1.46-10.073,1.751
		c-1.977,5.13-5.348,11.366-12.321,8.671c-4.99-1.928-7.874-4.897-3.413-8.588c1.898-1.569,2.732-4.425,1.332-6.503
		c-1.704-2.533-6.279,1.89-7.659,3.002c-5.32,4.281-8.719,4.591-15.151,4.753c-2.987,0.075-4.679,0.984-6.974,1.008v686.12
		c0.744-0.255,1.62-0.327,2.728-0.088c2.267,0.49,8.275,1.085,9.907,2.335c5.936,4.547,1.845,10.146,12.654,8.171
		c4.477-0.818,3.754,3.045,3.413,6.169c-0.839,7.67,17.091-1.093,19.812-3.002c2.976-2.089,17.789-12.172,20.979-10.589
		c0.328,1.327-1.665,2.832-0.75,3.753c2.023,0,3.597-1.137,5.744-0.584c1.721,0.443,1.841,1.86,3.996,1.668
		c0.828-1.11,3.466-3.622,4.745-4.086c2.578-0.631,7.606-0.822,9.407-2.752c3.057-3.277,5.204-9.914,8.075-2.252
		c0.96,2.564,1.667,7.678,3.745,9.339c2.183,1.745,5.636,0.315,7.659,1.834c2.772,2.082-1.038,5.37,4.412,7.17
		c4.101,1.355,5.638,5.195,7.159,8.838c0.814,2.264,0.766,7.195,4.078,7.087c3.509-0.113,6.22-3.259,9.823-0.583
		c1.446,1.075,2.907,4.309,4.412,5.919c4.577,4.899,7.425,4.545,7.159,12.757c-0.119,3.677-2.841,9.978,2.164,10.923
		c7.792,1.473-0.432,12.954,9.157,14.091c6.564,0.778,13.577-1.405,7.658-8.421c-1.897-2.25-9.036-6.271-3.246-8.754
		c2.325-0.996,5.314-8.103,8.074-5.17c4.373,4.645-0.406,10.172,9.49,10.172c9.037,0,9.698-2.058,13.486,6.169
		c0,3.584,4.307,5.875,2.914,9.172c-1.062,2.513-4.482,5.907-7.076,6.753c-2.406,0.786-6.743-0.797-6.743,3.169
		c0,7.499-11.594,17.856-18.314,20.178c-6.55,2.263-5.292,5.192-0.999,9.088c2.48,2.252,0.452,8.859-0.25,11.84
		c-0.965,2.645-0.533,4.512-2.996,6.42c-2.511,1.947-1.089,3.612,0.749,5.086c5.345,4.289-7.201,15.498-8.99,20.761
		c-0.937,2.754-0.947,5.925-2.747,8.255c-2.477,3.209,7.711,9.387,10.489,9.255c2.154-0.102,1.543-4.963,2.664-6.087
		c1.107-1.108,21.959-0.572,23.059,0.834c1.525,1.947-2.983,5.034,0.416,7.337c2.954,2.003-0.108,5.931-0.333,8.838l-1.082,0.334
		c-0.359,1.627-1.732,3.449-0.666,5.253c0.737,1.25,2.702,0.15,3.08,2.502c1.026,6.386,9.139,10.204,11.073,17.509
		c1.328,5.013,2.359,12.167-2.831,15.092c-3.565,2.01-9.195-0.502-10.739,4.086c-2.332,6.933-7.784,8.614-14.402,5.17
		c-5.455-2.839-10.255,9.155-11.655,12.424c-2.492,4.993-5.836,7.701-4.745,13.758c0.682,3.781,2.634,9.357,6.243,11.006
		c4.573,2.087,6.194,1.295,3.247,7.003c-1.471,2.851-11.005,13.341-2.664,13.341c3.201,0,6.693-2.001,9.823-1.001
		c2.963,0.947,6.428,5.208,9.907,6.92c6.658,3.279-3.253,11.837,8.407,8.838c3.929-1.011,5.775-0.233,9.49,0.501
		c4.573,0.902,6.767-2.179,10.489-4.17c3.831-0.195,7.464-3.01,11.489-2.751c3.046,0.195,5.407,2.585,8.824,2.585
		c4.293,0,9.185-8.735,13.153-3.086c2.539,3.614,8.043,3.537,11.905,4.67c3.758,1.103,6.53,3.462,10.156,4.836
		c11.294,4.283,24.356,1.983,36.046,7.838c4.529,0.106,9.542,5.309,12.904,4.753c3.158-0.522,7.937-5.402,12.154-6.587
		c8.37-2.351,15.171,2.68,22.893-3.669c3.939-3.239,4.286-9.729,8.241-12.423c4.941-3.366,16.079,4.153,17.898-6.253
		c1.973-11.289,13.232-7.28,23.06-8.922l21.644-6.42c3.882-1.151,8.738-1.211,12.237-3.252c3.401-1.985,0.973-11.297,0.417-14.591
		c-1.241-7.345,0.48-9.892,3.746-16.425c1.567-2.009,3.745-14.345,1.748-15.342c-1.796-0.898-4.654-0.65-6.077-2.335
		c-1.048-1.24-0.655-3.683-1.498-5.252c-2.286-4.249,3.606-3.27,5.41-7.17c2.65-5.73,1.721-11.592,6.993-16.425
		c2.192-2.009,4.875-1.191,6.909-2.919c3.088-2.624,6.39-5.034,10.156-6.837c2.588-0.562,4.14-1.226,6.243-2.751
		c0.192-2.158-2.253-3.804-2.997-5.92c-0.769-2.189,7.799-2.382,7.242-8.921c-0.646-7.6,11.684-10.591,16.816-14.008
		c5.483-3.649,9.033-8.781,13.486-13.258h0.333c1.727,2.161,1.818,5.617,3.746,7.671c1.849,1.97,13.775,2.663,16.317,2.335
		c5.156-0.665,8.241-0.23,8.241,5.586c0,5.301,2.803,3.071,6.743,4.336c6.241,2.004-1.994,7.042-3.83,8.337
		c-3.671,2.593-6.742,6.419-6.742,11.09c0.596,2.866,2.118,6.289,0.999,8.921c-0.603,1.421-2.083,3.41-1.998,4.92
		c0.091,1.611,2.152,2.431,1.831,4.752c-0.231,1.674-2.972,3.378-4.412,2.085c-1.391-1.248-2.05-10.22-5.494-7.838
		c-1.293,0.895-6.315,3.851-5.66,5.254c1.314,2.819,3.606,5.012,1.248,8.004c-3.587,4.552-0.539,11.673-7.158,11.673
		c-5.004,0-6.835,4.16-2.248,6.587c4.13,2.184,0.832,2.029,0.832,5.919c0,4.541,6.382,3.416,7.243,8.421
		c0.81,4.704-7.023,8.033-10.073,11.09c-2.553,3.341-1.873,3.84-1.082,7.17c0.303,1.279-1.26,1.286-1.415,2.251
		c-0.277,1.728,2.209,3.251,1.165,5.587c-2.355,5.265,0.005,9.86-1.914,14.841c-2.585,6.707-5.189,3.176-9.906,5.503
		c-0.542,0.266-2.595,13.815-2.664,15.675c-0.252,6.668,14.249,8.593,18.814,9.589c2.547-0.713,12.022-0.404,12.238,2.918
		c0.541,8.34,1.011,13.143,9.323,17.176c5.012,2.432,5.901,6.374,8.99,10.422c2.795,3.661,0.012,4.167-3.413,4.67
		c-5.087,0.746,6.542,4.287,2.664,7.754c-4.872,4.357-7.65,2.666-8.158,10.923c-0.594,1.886-4.252,12.127-5.161,12.757
		c-1.634,1.129-3.015-1.1-4.578-1.501c-2.592-0.665,3.21,7.872,3.413,9.922c0.362,3.635-1.567,7.597,1.831,10.422
		c3.537,2.943,4.524-1.133,3.746,5.753c-0.298,2.642-0.277,6.173,1.748,8.088c6.154,5.816-2.386,6.147-3.08,11.589
		c-0.634,4.976-4.995,10.541-4.995,14.592c0,1.473,1.948,1.788,3.08,2.251c4.007,1.636,4.389-2.501,8.325-2.501
		c2.816,0,3.849,2.864,7.741,2.668c3.349,0.225,4.999,2.633,7.993,1.918l12.57-3.002c3.889-0.929,6.844-6.917,10.24-8.004
		c2.276-0.73,4.656,1.702,8.741,0.584c8.191-2.241,11.91,0.92,16.399,7.087c9.172,12.605,16.6,16.727,32.717,17.092
		c16.088,0.366,11.007,7.391,20.562,16.258c1.372,1.332,2.527,4.725,3.728,8.753V155.973L1332.156,130.888z"/>
	<path fill="#FAE042" d="M1274.05,81.389c-0.077-0.294-0.265-0.528-0.312-0.854c-0.02-0.136,0.056-0.844-0.104-0.897
		c-0.102-0.033-1.059,0.12-1.103,0.209c-0.28,0.573,0.813,1.392,0.249,1.751c-0.31,0.196-1.054,0.34-1.436,0.396l-4.12,0.605
		c-0.917,0.135-1.908,0.46-2.83,0.479h0l-0.042,1.293c0.536,0.899,1.224,0.827,2.164,0.688c0.743-0.11,0.997,0.785,1.603,0.667
		c0.477-0.092,0.599-0.579,0.978-0.667c0.693-0.16,0.665-0.483,1.103-0.98c0.707-0.802,0.552,1.328,1.706,0.604
		c0.378-0.236,0.313-0.81,0.5-1.167c0.203-0.389,0.94-0.138,1.311-0.417c0.57-0.431-0.261-0.818-0.063-1.188
		C1273.75,81.733,1274.113,81.634,1274.05,81.389z"/>
	<path d="M698.978,278.719c-4.898-1.633-5.734-2.268-10.989-1.668c-4.543,0.519-6.431-7.283-6.243-10.839
		c-0.919-4.589-0.755-10.612-0.583-15.342c0.158-4.353,5.743-7.084,0-9.338c-2.697-1.059-3.434-3.789-5.577-4.92
		c-1.952-1.031-8.991,4.972-8.991-0.584c0-7.983-6.883-5.685-12.82-7.17c-4.95,0.94-11.04,2.029-15.567-0.667
		c-3.974-2.368-5.721-4.26-10.49-5.586c-6.059-1.684-13.91-13.492-20.229-8.004c-2.876,2.497-9.242-4.362-12.904-5.003
		c-6.296-1.1-11.296-8.643-15.817-3.002c-3.364,4.199,0.468,5.018-1.082,8.087c-1.617,3.203-8.585-3.073-10.989-4.002
		c-6.333,5.63-1.018,5.616-8.324,2.918c-2.796-1.032-2.735,6.43-6.327,5.42c-1.371-0.386-2.09-3.085-3.829-3.085
		c-4.946,0-0.397,23.052,0.167,25.931c2.065,10.544,1.43,8.803-7.742,9.756c-11.744,1.221-25.264,2.375-36.878,0
		c-9.053-1.85-4.446-6.586-9.074-10.173c-2.638-2.043-5.969-1.687-8.74-3.419c-3.31-2.069-10.063-11.354-10.74-15.258
		c-0.926-5.332-0.972-4.244-4.162-8.672c-1.182-2.369-4.335-4.646-3.246-7.587c0.552-1.49,3.384-2.62,2.997-4.252
		c-1.093-4.615-9.036-6.407-4.163-12.591c7.757-9.845,12.739-12.406,3.913-24.18c-1.013-1.352,0.169-5.569,0.333-7.337l-4.239-8.629
		l-0.001-0.001c-0.964,0.671-1.983,1.281-3.087,1.792c-9.222,4.267-20.87,5.26-30.552,8.922c-4.773,1.658-32.802,17.468-34.797,7.42
		c-0.384-1.935-1.025-7.667-2.914-8.421c-6.021-2.407-6.923-5.075-6.16,0.333c5.18,0.745,9.565,12.45,4.912,13.758l-6.826,1.918
		c-2.172,0.61-9.158,5.507-9.158,1.751c0-4.966,5.956-6.942,6.243-9.755c0.241-2.365-4.821-1.021-5.743-0.417
		c-1.505,0.984-7.179,5.853-4.995,0.083c0.882-2.331,5.411-3.255,5.411-6.419c-5.075-1.282-11.086,3.134-9.823,8.838
		c1.299,5.872,4.296,9.225-0.083,14.174c-3.285,3.711-13.333,5.109-17.815,7.504l-32.134,14.425l-19.063,15.675
		c-10.336,8.5-30.351,24.87-43.122,27.932L208.9,281.887c-12.015,8.217-24.797,20.465-37.961,26.014
		c-9.388,5.184-20.829,9.901-29.137,16.758c-6.027,4.973-14.828,10.517-21.894,13.925c-13.187,6.361-27.529,11.784-39.209,20.678
		c-6.922,5.305-15.999,7.955-22.976,13.174c-1.936,1.449-4.319,2.911-6.852,4.318v1.373c0.148,0.187,0.293,0.377,0.441,0.563
		l6.66,16.258l3.33,21.679c0.81,5.273,3.171,10.192,3.579,15.592c0.273,3.61-2.078,6.368-0.999,9.756
		c1.071,3.36,7.22,9.522,10.24,11.256c1.789,1.026,6.304-0.21,7.242,1.668c1.164,2.33,1.165,6.446,1.165,9.088
		c0,5.336,6.107,12.754,8.075,17.926l2.664,7.003c1.588,4.176-3.83,3.676-4.912,8.755c-0.909,4.268-3.211,4.722-6.16,7.337
		c-1.324,1.172-7.575,9.1-7.575,10.506c0,4.574,9.512-2.554,7.492,5.586c-2.283,5.034-0.901,5.161,1.748,8.254
		c0.415,0.485-2.573,5.397-2.497,7.42c0.099,2.617,2.027,4.306,2.747,6.67c0.674,2.211-1.471,3.659-2.247,5.753
		c-1.263,3.404,4.969,4.568,1.914,9.839c-2.003,3.454-3.886,4.868-3.746,9.338c0.09,2.877,3.347,1.669,5.244,1.751
		c3.048,0.131-0.319,6.033,1.832,7.587c2.827,2.042,4.162,1.582,4.162,6.337c-0.294,3.16,3.62,11.499,6.41,13.257
		c8.92,5.619,12.418-9.843,18.397-1.667c3.164,4.326,19.812,1.615,25.64,3.085c3.644,4.872-3.181,6.744-1.665,11.923
		c1.496,5.107,6.168,12.077,10.906,14.425c7.949,3.938,8.657,5.436,8.657,13.007c0.099,0.125,0.135,0.175,0.167,0.334
		c0.486,0.39,1.684,1.242,1.831,1.835c0.975,0.694,0.126,3.451,0.25,4.586c0.969,0.693,3.257,1.435,4.495,1.501
		c7.575,0.672,2.277,8.701,5.161,13.924c3.267,5.919,10.684,16.536,18.897,14.926c3.79-0.744,11.989-5.396,15.318-2.252
		c2.789,2.633,5.409,8.494,7.575,11.757l5.244,3.919c6.241-7.221,7.48,5.669,12.82,5.669c2.485,0,3.236-2.668,3.58-4.669
		c0.524-3.045,7.051-1.97,9.49-5.42c3.53-4.992-0.663-12.053,1.664-15.758c0.959-1.527,7.148-3.028,6.327-5.42
		c-1.363-3.973-5.416-4.805-1.415-9.505c3.066-3.603,6.448-7.881,11.738-4.753c4.931,2.917,16.478-7.956,20.229-11.089
		c2.533-2.116,3.419-5.013,7.159-5.586c6.151-0.945,8.741,4.263,13.736-3.252c6.488-9.76,12.89,1.378,18.231,2.751
		c9.114,2.344,7.844-7.338,12.987-10.589c2.636-1.667,5.34-2.92,8.152-3.902l4.252,2.985c1.814-0.959,9.938-4.342,10.906-1.334
		c0.722,2.242,0.633,5.026,1.581,7.087c1.785,3.878,4.702,7.179,6.493,10.922c0.755,1.578,0.232,3.167,1.499,4.67
		c1.5,1.779,2.582,2.367,3.829,4.503l1.831,5.169c1.816,5.124,5.221,5.077,8.075,8.671c1.101,1.388-2.07,5.98-2.497,7.671
		c-1.144,4.534,8.023,1.934,7.242,9.004c-0.642,5.808,9.776,2.093,12.57,1.835c7.998-0.738,9.807,3.365,13.986,9.171
		c1.647,2.287,0.091,4.851-1.249,6.837c-2.338,3.466,0.535,5.383,1.332,8.588c6.107,7.825-4.843,4.293-8.158,10.256
		c-3.611,6.499-0.598,9.144,2.247,14.591c1.203,2.304-1.515,6.669-1.665,9.339c-0.177,3.12,3.407,4.821,4.246,8.004
		c0.523,1.981-0.058,4.663,1.248,6.253c2.463,2.999,4.48,4.156,6.243,7.921c0.451,3.823,2.615,6.065,2.498,10.339
		c-0.167,6.134,0.787,9.706,1.998,15.425c0.618,2.921-2.31,7.457-1.499,9.088c0.759,1.525,4.763,3.608,4.246,5.253
		c-0.408,1.295-3.508,1.103-4.079,3.669c-0.6,2.693,5.127,1.885,3.329,4.419c-2.65,3.737-1.945,7.251-1.498,11.59l4.995,9.171
		c2.171,3.986,8.122,3.571,12.404,4.753c5.875,1.622,3.777,4.662,6.742,8.171c4.087,4.834,14.466-0.979,20.063,8.005
		c2.96,4.749,6.149,9.266,11.405,4.002c3.999-4.004,4.16-3.502,9.74-3.502c3.959,0,4.048-2.567,7.075-4.169
		c2.918-1.543,8.431-1.324,11.905-2.669c1.827-0.708,5.192-9.896,6.243-12.09c2.306-1.254,3.957-1.575,4.911-4.336
		c0.508-1.469,1.14-4.56,3.08-4.67c1.327-0.075,2.587,2.295,3.497,3.169c2.483,2.378,7.642,0.029,10.822,0.5
		c4.77,0.705,8.323,4.666,6.993,9.756c-1.348,5.168-7.523,8.112-8.741,13.924c0.168,2.375,0.082,7.911,1.665,9.589
		c2.054,2.179,7.002-3.001,8.657-4.419c2.89-2.479,7.14-3.002,10.823-3.002c4.727,0,16.251-4.517,18.98-0.417
		c2.812,4.223,2.271,9.397,9.407,4.503c8.542-5.858,8.094-0.339,13.569,5.669c5.473,6.004,6.692,8.865,9.906,16.509
		c1.362,3.844,6.307,2.046,8.159,4.919c1.234,1.914-0.473,4.082,0.249,6.17c1.307,3.776,4.629,6.143,4.163,10.505
		c-0.772,7.213,2.747,11.83,2.747,18.677c0,4.95,1.802,16.144-0.666,20.178c-1.233,1.948-1.13,4.457-2.664,6.253
		c-1.38,1.613-3.435,2.807-4.079,5.003c-0.74,2.525,4.875,4.148,4.745,8.588c-0.092,3.186-0.916,6.213-0.916,9.505
		c0,4.916,6.002,5.489,4.579,10.339c-1.382,4.71,3.46,8.21,6.243,11.923c3.251,3.5,7.658,14.368,12.154,15.425
		c6.198,1.459,0.083-9.344,0.083-12.091c2.846,0,3.117,3.249,3.913,5.253c0.918,2.313,3.294,3.244,5.411,1.251
		c1.137-1.071-1.008-10.09-0.5-12.591c0.583-2.874,3.206-5.24,3.746-8.504c0.988-5.961,3.58-13.31,10.406-9.505
		c5.297,2.952,3.447-0.778,5.994-2.836c1.875-1.516,6.83-0.297,9.24-0.583c3.958,1.458,9.104-0.751,13.403-0.751
		c2.178,1.748-2.41,7.863,2.913,6.337c3.081-0.883,3.897-4.545,6.68-5.498V279.31C701.426,279.321,700.333,279.171,698.978,278.719z
		"/>
</g>
</svg>
